<svg width="26" height="26" viewBox="0 0 26 26" fill="none" xmlns="http://www.w3.org/2000/svg">
<path d="M23.8 16.098C23.6297 16.098 23.4664 16.1657 23.346 16.2861C23.2256 16.4065 23.158 16.5698 23.158 16.74V22.44C23.1575 22.9507 22.9544 23.4402 22.5933 23.8013C22.2322 24.1624 21.7426 24.3655 21.232 24.366H3.211C2.70036 24.3655 2.21078 24.1624 1.8497 23.8013C1.48862 23.4402 1.28553 22.9507 1.285 22.44V5.70902C1.28579 5.19846 1.48897 4.70903 1.84999 4.34801C2.21101 3.98699 2.70044 3.78382 3.211 3.78302H8.911C9.08127 3.78302 9.24456 3.71538 9.36496 3.59499C9.48536 3.47459 9.553 3.31129 9.553 3.14102C9.553 2.97075 9.48536 2.80746 9.36496 2.68706C9.24456 2.56666 9.08127 2.49902 8.911 2.49902H3.211C2.35981 2.49982 1.54369 2.83823 0.94171 3.44003C0.339732 4.04182 0.00105899 4.85783 0 5.70902L0 22.442C0.000794309 23.2934 0.33935 24.1097 0.941357 24.7117C1.54336 25.3137 2.35963 25.6522 3.211 25.653H21.228C22.0794 25.6522 22.8956 25.3137 23.4976 24.7117C24.0996 24.1097 24.4382 23.2934 24.439 22.442V16.742C24.439 16.5718 24.3714 16.4085 24.251 16.2881C24.1306 16.1677 23.9673 16.1 23.797 16.1L23.8 16.098Z" fill="black"/>
<path d="M24.1835 0.845849C23.9153 0.57753 23.5968 0.364685 23.2462 0.219469C22.8957 0.0742537 22.52 -0.000488281 22.1405 -0.000488281C21.7611 -0.000488281 21.3854 0.0742537 21.0349 0.219469C20.6843 0.364685 20.3658 0.57753 20.0975 0.845849L8.64154 12.3018C8.56299 12.3803 8.50614 12.4778 8.47653 12.5848L6.97053 18.0238C6.94023 18.1333 6.93952 18.2489 6.96846 18.3587C6.99741 18.4686 7.05498 18.5688 7.1353 18.6491C7.21562 18.7294 7.31582 18.787 7.42566 18.8159C7.5355 18.8449 7.65106 18.8442 7.76053 18.8139L13.1995 17.3069C13.3065 17.2772 13.4041 17.2204 13.4825 17.1418L24.9365 5.68585C25.4775 5.14352 25.7812 4.40882 25.7812 3.64285C25.7812 2.87688 25.4775 2.14217 24.9365 1.59985L24.1835 0.845849ZM10.0405 12.7188L19.4165 3.33885L22.4405 6.36285L13.0635 15.7388L10.0405 12.7188ZM9.44053 13.9308L11.8565 16.3468L8.51554 17.2729L9.44053 13.9308ZM24.0325 4.77785L23.3515 5.45885L20.3235 2.43885L21.0045 1.75785C21.1536 1.60878 21.3305 1.49054 21.5253 1.40986C21.72 1.32918 21.9287 1.28766 22.1395 1.28766C22.3503 1.28766 22.5591 1.32918 22.7538 1.40986C22.9485 1.49054 23.1255 1.60878 23.2745 1.75785L24.0285 2.51085C24.3279 2.81212 24.496 3.21961 24.496 3.64435C24.496 4.06909 24.3279 4.47658 24.0285 4.77785H24.0325Z" fill="black"/>
</svg>
