<svg width="26" height="26" viewBox="0 0 26 26" fill="none" xmlns="http://www.w3.org/2000/svg">
<circle cx="13.1632" cy="12.8367" r="12.8367" fill="white"/>
<g clip-path="url(#clip0)">
<path d="M18.2906 10.7212C18.2665 10.1756 18.1783 9.80047 18.0519 9.47541C17.9215 9.13037 17.7209 8.82146 17.4581 8.56466C17.2013 8.30386 16.8903 8.10121 16.5493 7.97285C16.2223 7.84645 15.8492 7.75821 15.3035 7.73416C14.7538 7.70806 14.5793 7.70203 13.185 7.70203C11.7907 7.70203 11.6162 7.70806 11.0685 7.73212C10.5229 7.75618 10.1478 7.84449 9.82278 7.97082C9.47766 8.10121 9.16875 8.30183 8.91195 8.56466C8.65115 8.82146 8.44858 9.13241 8.32014 9.47345C8.19374 9.80047 8.1055 10.1736 8.08145 10.7192C8.05535 11.2689 8.04932 11.4435 8.04932 12.8377C8.04932 14.232 8.05535 14.4065 8.07941 14.9542C8.10347 15.4998 8.19178 15.875 8.31818 16.2C8.44858 16.5451 8.65115 16.854 8.91195 17.1108C9.16875 17.3716 9.4797 17.5742 9.82074 17.7026C10.1478 17.829 10.5208 17.9172 11.0666 17.9413C11.6142 17.9654 11.7888 17.9714 13.183 17.9714C14.5773 17.9714 14.7518 17.9654 15.2995 17.9413C15.8452 17.9172 16.2203 17.829 16.5453 17.7026C17.2354 17.4357 17.7811 16.8901 18.0479 16.2C18.1742 15.873 18.2625 15.4998 18.2866 14.9542C18.3107 14.4065 18.3167 14.232 18.3167 12.8377C18.3167 11.4435 18.3147 11.2689 18.2906 10.7212ZM17.3658 14.9141C17.3437 15.4156 17.2595 15.6864 17.1893 15.867C17.0167 16.3143 16.6616 16.6694 16.2143 16.842C16.0337 16.9122 15.7609 16.9964 15.2613 17.0185C14.7197 17.0426 14.5572 17.0485 13.187 17.0485C11.8168 17.0485 11.6524 17.0426 11.1127 17.0185C10.6111 16.9964 10.3403 16.9122 10.1597 16.842C9.93711 16.7597 9.73446 16.6293 9.56998 16.4588C9.39946 16.2922 9.26906 16.0916 9.18677 15.869C9.11656 15.6885 9.03232 15.4156 9.0103 14.9161C8.98616 14.3744 8.98021 14.2119 8.98021 12.8417C8.98021 11.4715 8.98616 11.307 9.0103 10.7674C9.03232 10.2659 9.11656 9.99505 9.18677 9.81449C9.26906 9.59178 9.39946 9.38921 9.57201 9.22465C9.73846 9.05413 9.93907 8.92373 10.1618 8.84152C10.3423 8.77131 10.6152 8.68707 11.1147 8.66497C11.6563 8.64091 11.8189 8.63488 13.189 8.63488C14.5612 8.63488 14.7237 8.64091 15.2634 8.66497C15.7649 8.68707 16.0357 8.77131 16.2163 8.84152C16.4389 8.92373 16.6416 9.05413 16.8061 9.22465C16.9766 9.39117 17.107 9.59178 17.1893 9.81449C17.2595 9.99505 17.3437 10.2678 17.3658 10.7674C17.3899 11.3091 17.3959 11.4715 17.3959 12.8417C17.3959 14.2119 17.3899 14.3724 17.3658 14.9141Z" fill="#F52F44"/>
<path d="M13.1824 10.1994C11.726 10.1994 10.5443 11.381 10.5443 12.8375C10.5443 14.2939 11.726 15.4755 13.1824 15.4755C14.6388 15.4755 15.8204 14.2939 15.8204 12.8375C15.8204 11.381 14.6388 10.1994 13.1824 10.1994ZM13.1824 14.5487C12.2375 14.5487 11.4711 13.7824 11.4711 12.8375C11.4711 11.8925 12.2375 11.1262 13.1824 11.1262C14.1273 11.1262 14.8936 11.8925 14.8936 12.8375C14.8936 13.7824 14.1273 14.5487 13.1824 14.5487Z" fill="#F52F44"/>
<path d="M16.5408 10.0953C16.5408 10.4354 16.265 10.7111 15.9248 10.7111C15.5847 10.7111 15.309 10.4354 15.309 10.0953C15.309 9.75507 15.5847 9.47939 15.9248 9.47939C16.265 9.47939 16.5408 9.75507 16.5408 10.0953Z" fill="#F52F44"/>
</g>
<defs>
<clipPath id="clip0">
<rect width="10.2694" height="10.2694" fill="white" transform="translate(8.02869 7.70203)"/>
</clipPath>
</defs>
</svg>
