<svg width="40" height="40" viewBox="0 0 40 40" fill="none" xmlns="http://www.w3.org/2000/svg">
<path d="M20 0C11.7275 0 5 6.7275 5 15C5 25.3975 18.54 39.0575 19.115 39.635C19.36 39.8775 19.68 40 20 40C20.32 40 20.64 39.8775 20.885 39.635C21.46 39.0575 35 25.3975 35 15C35 6.7275 28.2725 0 20 0ZM20 36.9425C17.015 33.7475 7.5 22.9425 7.5 15C7.5 8.1075 13.1075 2.5 20 2.5C26.8925 2.5 32.5 8.1075 32.5 15C32.5 22.935 22.985 33.7475 20 36.9425Z" fill="#FF5A00"/>
<path d="M20 7.5C15.865 7.5 12.5 10.865 12.5 15C12.5 19.135 15.865 22.5 20 22.5C24.135 22.5 27.5 19.135 27.5 15C27.5 10.865 24.135 7.5 20 7.5ZM20 20C17.2425 20 15 17.7575 15 15C15 12.2425 17.2425 10 20 10C22.7575 10 25 12.2425 25 15C25 17.7575 22.7575 20 20 20Z" fill="#FF5A00"/>
</svg>
