<svg width="360" height="91" viewBox="0 0 360 91" fill="none" xmlns="http://www.w3.org/2000/svg">
<rect y="1.42188" width="82.4688" height="82.4688" fill="#FF5A00"/>
<path d="M59.9766 32.5376C59.9809 32.5418 59.9856 32.5454 59.9899 32.5496C59.985 32.5429 59.9456 32.5014 59.9766 32.5376Z" fill="white"/>
<path d="M26.9848 40.824C26.9821 40.8212 26.9792 40.8184 26.9765 40.8157C25.884 39.7231 24.4313 39.1213 22.8861 39.1213C21.341 39.1213 19.8884 39.723 18.7958 40.8156C16.613 42.9985 16.5429 46.506 18.5852 48.7741C18.0166 49.0621 17.4929 49.4443 17.0349 49.9154C14.8259 52.1876 14.852 55.8592 17.0887 58.0957L19.9958 61.0198L17.9966 63.0165C17.2078 63.8045 17.207 65.0828 17.9948 65.8716C18.389 66.2663 18.906 66.4638 19.4232 66.4638C19.9394 66.4638 20.4557 66.267 20.8499 65.8734L22.8426 63.8832L25.7302 66.7876C26.6589 67.7164 27.8881 68.3096 29.1915 68.4577C29.4165 68.4832 29.6406 68.4958 29.8634 68.4958C31.431 68.4958 32.9216 67.8707 34.0315 66.729C34.4277 66.3214 34.7508 65.8684 35.0033 65.3871C36.1158 66.4409 37.5468 66.9695 38.9787 66.9695C40.4601 66.9695 41.9413 66.4056 43.0691 65.2778C45.3229 63.024 45.3243 59.3576 43.0735 57.1018L26.9848 40.824ZM31.1364 63.9147C30.7467 64.3154 30.2038 64.509 29.6472 64.4458C29.3648 64.4137 28.9514 64.2987 28.5896 63.9369L19.948 55.2449C19.2594 54.5564 19.2515 53.4282 19.9303 52.7299C20.267 52.3834 20.7187 52.1908 21.202 52.1873C21.2063 52.1873 21.2107 52.1873 21.215 52.1873C21.6373 52.1873 22.0367 52.3327 22.3547 52.5969L31.3684 61.7166C31.7942 62.3994 31.7192 63.3151 31.1364 63.9147ZM40.2139 62.4227C39.5339 63.1027 38.428 63.1038 37.7467 62.426L21.6509 46.141C20.9699 45.4599 20.9699 44.3516 21.6509 43.6705C21.9809 43.3405 22.4195 43.159 22.886 43.159C23.351 43.159 23.7884 43.3394 24.1181 43.6674L40.2056 59.9439C40.2083 59.9466 40.2111 59.9494 40.2139 59.9522C40.895 60.6334 40.895 61.7417 40.2139 62.4227Z" fill="white"/>
<path d="M43.5736 22.6612C44.0403 22.6612 44.4788 22.8429 44.8151 23.1791L57.124 35.3947C58.255 36.5256 59.7502 37.0925 61.2464 37.0923C62.7143 37.0922 64.1833 36.5464 65.3087 35.4524C66.6126 34.1849 67.2427 32.4208 67.0373 30.6125C66.8893 29.3095 66.2963 28.0801 65.3632 27.1474L62.4628 24.2637L64.453 22.271C65.2409 21.4822 65.2401 20.2038 64.4512 19.416C63.6622 18.6281 62.384 18.6287 61.5961 19.4177L59.5994 21.4168L56.6796 18.5137C54.4387 16.2731 50.7672 16.2471 48.495 18.4559C48.0192 18.9185 47.6337 19.4483 47.3449 20.0236C46.296 19.1187 44.9732 18.6235 43.5738 18.6235C42.0287 18.6235 40.5761 19.2252 39.4835 20.3177C38.391 21.4102 37.7892 22.863 37.7892 24.408C37.7892 25.9531 38.3909 27.4058 39.479 28.4939L45.9806 35.0367L36.273 44.7698C35.4857 45.5591 35.4873 46.8374 36.2767 47.6248C36.6708 48.0178 37.1866 48.2142 37.7025 48.2142C38.22 48.2142 38.7375 48.0165 39.132 47.621L48.8267 37.9007L55.4714 44.5874C56.564 45.68 58.0167 46.2818 59.5617 46.2818C61.1069 46.2818 62.5595 45.6801 63.6521 44.5874C64.4405 43.799 64.4405 42.5207 63.6521 41.7324C62.8638 40.9441 61.5854 40.9441 60.797 41.7325C60.467 42.0625 60.0285 42.244 59.5618 42.244C59.0953 42.244 58.6566 42.0624 58.3311 41.7369L42.3384 25.6432C42.0085 25.3132 41.8268 24.8747 41.8268 24.408C41.8268 23.9414 42.0085 23.5028 42.3384 23.1729C42.6684 22.8429 43.1071 22.6612 43.5736 22.6612ZM51.3094 21.3512C51.6547 21.0155 52.1052 20.8479 52.5562 20.8479C53.017 20.8479 53.4784 21.023 53.8286 21.373L62.5122 30.0065C62.8781 30.3724 62.9932 30.7858 63.0253 31.0681C63.0885 31.625 62.8949 32.1678 62.4943 32.5574C61.7996 33.2326 60.6801 33.2277 59.9864 32.5457C59.9879 32.5478 59.9858 32.5461 59.9751 32.5354L51.2915 23.902C50.9498 23.5604 50.7635 23.1061 50.7669 22.6229C50.7703 22.1396 50.963 21.688 51.3094 21.3512Z" fill="white"/>
<path d="M107.749 26.7884H102.274V39H95.4003V5.64148H107.795C111.736 5.64148 114.775 6.51974 116.914 8.27625C119.052 10.0328 120.121 12.5148 120.121 15.7224C120.121 17.9982 119.625 19.8998 118.632 21.4272C117.655 22.9393 116.165 24.146 114.164 25.0472L121.381 38.6792V39H114.004L107.749 26.7884ZM102.274 21.221H107.818C109.544 21.221 110.881 20.7857 111.828 19.9151C112.775 19.0292 113.248 17.8149 113.248 16.2722C113.248 14.699 112.797 13.4618 111.896 12.5606C111.01 11.6595 109.643 11.2089 107.795 11.2089H102.274V21.221ZM184.158 11.2089H173.939V39H167.066V11.2089H156.985V5.64148H184.158V11.2089ZM208.169 24.5431H194.972V33.4784H210.46V39H188.099V5.64148H210.414V11.2089H194.972V19.159H208.169V24.5431ZM104.381 50.6415L112.95 74.8356L121.473 50.6415H130.5V84H123.604V74.8814L124.291 59.1415L115.287 84H110.567L101.586 59.1644L102.274 74.8814V84H95.4003V50.6415H104.381ZM147.363 65.6711L154.305 50.6415H161.82L150.868 71.903V84H143.88V71.903L132.929 50.6415H140.466L147.363 65.6711ZM196.621 70.3679H183.425V84H176.551V50.6415H198.271V56.2089H183.425V64.8234H196.621V70.3679ZM209.566 84H202.693V50.6415H209.566V84ZM240.382 56.2089H230.163V84H223.29V56.2089H213.209V50.6415H240.382V56.2089ZM271.449 84H264.576L251.196 62.0512V84H244.322V50.6415H251.196L264.599 72.6361V50.6415H271.449V84ZM297.522 69.5431H284.325V78.4784H299.813V84H277.452V50.6415H299.767V56.2089H284.325V64.159H297.522V69.5431ZM321.143 75.248C321.143 73.9497 320.685 72.9569 319.768 72.2695C318.852 71.5669 317.202 70.8338 314.82 70.0701C312.437 69.2911 310.551 68.5274 309.161 67.779C305.373 65.7322 303.479 62.9753 303.479 59.5081C303.479 57.7057 303.983 56.102 304.991 54.6967C306.014 53.2763 307.473 52.1689 309.367 51.3746C311.276 50.5804 313.414 50.1833 315.782 50.1833C318.165 50.1833 320.288 50.6186 322.151 51.4892C324.015 52.3445 325.458 53.5588 326.481 55.132C327.52 56.7053 328.039 58.4923 328.039 60.4932H321.166C321.166 58.9658 320.685 57.7821 319.723 56.942C318.76 56.0867 317.409 55.659 315.667 55.659C313.987 55.659 312.681 56.0179 311.75 56.7358C310.818 57.4384 310.352 58.3701 310.352 59.531C310.352 60.6154 310.894 61.5242 311.979 62.2574C313.078 62.9905 314.69 63.6779 316.813 64.3194C320.723 65.4955 323.572 66.9542 325.359 68.6954C327.146 70.4366 328.039 72.6056 328.039 75.2021C328.039 78.0889 326.947 80.3571 324.763 82.0067C322.579 83.6411 319.639 84.4582 315.942 84.4582C313.376 84.4582 311.039 83.9924 308.932 83.0606C306.824 82.1137 305.212 80.823 304.097 79.1887C302.998 77.5544 302.448 75.6604 302.448 73.5067H309.344C309.344 77.1878 311.543 79.0283 315.942 79.0283C317.577 79.0283 318.852 78.6999 319.768 78.0431C320.685 77.3711 321.143 76.4393 321.143 75.248ZM350.011 75.248C350.011 73.9497 349.553 72.9569 348.636 72.2695C347.72 71.5669 346.07 70.8338 343.688 70.0701C341.305 69.2911 339.419 68.5274 338.029 67.779C334.241 65.7322 332.347 62.9753 332.347 59.5081C332.347 57.7057 332.851 56.102 333.859 54.6967C334.882 53.2763 336.341 52.1689 338.235 51.3746C340.144 50.5804 342.282 50.1833 344.65 50.1833C347.033 50.1833 349.156 50.6186 351.019 51.4892C352.883 52.3445 354.326 53.5588 355.349 55.132C356.388 56.7053 356.907 58.4923 356.907 60.4932H350.034C350.034 58.9658 349.553 57.7821 348.591 56.942C347.628 56.0867 346.277 55.659 344.535 55.659C342.855 55.659 341.549 56.0179 340.618 56.7358C339.686 57.4384 339.22 58.3701 339.22 59.531C339.22 60.6154 339.762 61.5242 340.847 62.2574C341.946 62.9905 343.558 63.6779 345.681 64.3194C349.591 65.4955 352.44 66.9542 354.227 68.6954C356.014 70.4366 356.907 72.6056 356.907 75.2021C356.907 78.0889 355.815 80.3571 353.631 82.0067C351.447 83.6411 348.507 84.4582 344.81 84.4582C342.244 84.4582 339.907 83.9924 337.799 83.0606C335.692 82.1137 334.08 80.823 332.965 79.1887C331.865 77.5544 331.316 75.6604 331.316 73.5067H338.212C338.212 77.1878 340.411 79.0283 344.81 79.0283C346.445 79.0283 347.72 78.6999 348.636 78.0431C349.553 77.3711 350.011 76.4393 350.011 75.248Z" fill="white"/>
<g clip-path="url(#clip0)">
<path d="M157.828 17.4502L145.429 16.635L140.759 4.90342L136.089 16.635L123.703 17.4502L133.203 25.5166L130.086 37.7529L140.759 31.0064L151.432 37.7529L148.315 25.5166L157.828 17.4502Z" fill="#FF5A00"/>
</g>
<defs>
<clipPath id="clip0">
<rect width="34.125" height="34.125" fill="white" transform="translate(123.703 4.26562)"/>
</clipPath>
</defs>
</svg>
