<svg width="22" height="22" viewBox="0 0 22 22" fill="none" xmlns="http://www.w3.org/2000/svg">
<path d="M18.906 0H2.363C1.73629 0 1.13526 0.248958 0.692107 0.692107C0.248958 1.13526 0 1.73629 0 2.363L0 7.09H2.363V2.363H18.906V18.906H2.363V14.18H0V18.906C0 19.5327 0.248958 20.1337 0.692107 20.5769C1.13526 21.02 1.73629 21.269 2.363 21.269H18.906C19.5327 21.269 20.1337 21.02 20.5769 20.5769C21.02 20.1337 21.269 19.5327 21.269 18.906V2.363C21.269 1.73629 21.02 1.13526 20.5769 0.692107C20.1337 0.248958 19.5327 0 18.906 0V0Z" fill="black"/>
<path d="M8.372 14.871L10.044 16.5431L15.952 10.635L10.044 4.72705L8.372 6.39905L11.426 9.45405H0V11.817H11.426L8.372 14.871Z" fill="black"/>
</svg>
