<svg width="253" height="64" viewBox="0 0 253 64" fill="none" xmlns="http://www.w3.org/2000/svg">
<rect y="1" width="58" height="58" fill="#FF5A00"/>
<path d="M42.1807 22.8837C42.1838 22.8867 42.1871 22.8892 42.1902 22.8923C42.1867 22.8875 42.1587 22.858 42.1807 22.8837Z" fill="white"/>
<path d="M18.978 28.7114C18.9761 28.7094 18.9741 28.7075 18.9722 28.7055C18.2038 27.9372 17.1822 27.5139 16.0955 27.5139C15.0088 27.5139 13.9872 27.9371 13.2188 28.7055C11.6836 30.2407 11.6343 32.7076 13.0706 34.3027C12.6707 34.5052 12.3024 34.7741 11.9803 35.1054C10.4268 36.7034 10.4451 39.2856 12.0181 40.8585L14.0627 42.915L12.6567 44.3193C12.1019 44.8735 12.1013 45.7726 12.6554 46.3273C12.9327 46.6049 13.2963 46.7438 13.66 46.7438C14.0231 46.7438 14.3862 46.6054 14.6634 46.3285L16.0649 44.9288L18.0957 46.9715C18.7488 47.6247 19.6133 48.0419 20.53 48.1461C20.6882 48.164 20.8458 48.1729 21.0026 48.1729C22.105 48.1729 23.1534 47.7333 23.934 46.9303C24.2126 46.6437 24.4399 46.3251 24.6174 45.9865C25.3999 46.7276 26.4063 47.0994 27.4133 47.0994C28.4552 47.0994 29.4969 46.7029 30.2901 45.9097C31.8752 44.3246 31.8762 41.746 30.2932 40.1595L18.978 28.7114ZM21.8978 44.951C21.6238 45.2328 21.242 45.369 20.8505 45.3245C20.6519 45.302 20.3611 45.221 20.1067 44.9666L14.0291 38.8536C13.5448 38.3694 13.5392 37.5759 14.0166 37.0848C14.2534 36.841 14.5711 36.7056 14.911 36.7032C14.9141 36.7032 14.9171 36.7032 14.9202 36.7032C15.2172 36.7032 15.4981 36.8054 15.7217 36.9913L22.061 43.4051C22.3605 43.8853 22.3077 44.5293 21.8978 44.951ZM28.282 43.9017C27.8038 44.38 27.026 44.3807 26.5468 43.904L15.2268 32.4508C14.7478 31.9718 14.7478 31.1924 15.2268 30.7133C15.4588 30.4813 15.7673 30.3536 16.0954 30.3536C16.4224 30.3536 16.73 30.4805 16.9619 30.7111L28.2762 42.1583C28.2781 42.1603 28.2801 42.1623 28.282 42.1642C28.7611 42.6433 28.7611 43.4227 28.282 43.9017Z" fill="white"/>
<path d="M30.6445 15.9376C30.9727 15.9376 31.2811 16.0653 31.5176 16.3018L40.1744 24.893C40.9699 25.6883 42.0214 26.087 43.0737 26.0869C44.1061 26.0868 45.1392 25.703 45.9307 24.9336C46.8477 24.0421 47.2909 22.8014 47.1464 21.5297C47.0423 20.6133 46.6253 19.7487 45.969 19.0927L43.9292 17.0646L45.3289 15.6631C45.883 15.1083 45.8824 14.2092 45.3276 13.6552C44.7727 13.1011 43.8737 13.1015 43.3197 13.6564L41.9154 15.0624L39.8619 13.0206C38.2859 11.4448 35.7037 11.4265 34.1057 12.98C33.7711 13.3053 33.5 13.6779 33.2968 14.0825C32.5591 13.4461 31.6288 13.0978 30.6446 13.0978C29.5579 13.0978 28.5363 13.521 27.7679 14.2894C26.9996 15.0577 26.5763 16.0795 26.5763 17.1661C26.5763 18.2527 26.9995 19.2744 27.7647 20.0397L32.3373 24.6412L25.51 31.4865C24.9563 32.0416 24.9574 32.9406 25.5126 33.4944C25.7898 33.7708 26.1525 33.9089 26.5153 33.9089C26.8793 33.9089 27.2433 33.7698 27.5207 33.4917L34.339 26.6554L39.0122 31.3582C39.7806 32.1266 40.8022 32.5498 41.8889 32.5498C42.9756 32.5498 43.9972 32.1266 44.7656 31.3582C45.3201 30.8037 45.3201 29.9047 44.7656 29.3503C44.2112 28.7958 43.3121 28.7958 42.7576 29.3503C42.5256 29.5824 42.2171 29.7101 41.8889 29.7101C41.5608 29.7101 41.2523 29.5823 41.0234 29.3534L29.7758 18.0348C29.5437 17.8027 29.416 17.4943 29.416 17.1661C29.416 16.8379 29.5437 16.5295 29.7758 16.2974C30.0079 16.0653 30.3164 15.9376 30.6445 15.9376ZM36.085 15.0163C36.3279 14.7801 36.6447 14.6622 36.9619 14.6622C37.286 14.6622 37.6105 14.7854 37.8568 15.0316L43.964 21.1035C44.2213 21.3608 44.3022 21.6515 44.3248 21.8501C44.3692 22.2417 44.2331 22.6235 43.9513 22.8975C43.4628 23.3724 42.6754 23.3689 42.1875 22.8893C42.1886 22.8907 42.1871 22.8896 42.1796 22.8821L36.0725 16.8102C35.8322 16.5699 35.7011 16.2505 35.7035 15.9106C35.7059 15.5707 35.8414 15.2531 36.085 15.0163Z" fill="white"/>
<path d="M75.7798 18.4116H71.9287V27H67.0947V3.53906H75.812C78.5835 3.53906 80.7212 4.15674 82.2251 5.39209C83.729 6.62744 84.481 8.37305 84.481 10.6289C84.481 12.2295 84.1318 13.5669 83.4336 14.6411C82.7461 15.7046 81.6987 16.5532 80.2915 17.187L85.3672 26.7744V27H80.1787L75.7798 18.4116ZM71.9287 14.4961H75.8281C77.042 14.4961 77.9819 14.1899 78.6479 13.5776C79.314 12.9546 79.647 12.1006 79.647 11.0156C79.647 9.90918 79.3301 9.03906 78.6963 8.40527C78.0732 7.77148 77.1118 7.45459 75.812 7.45459H71.9287V14.4961ZM129.518 7.45459H122.331V27H117.497V7.45459H110.407V3.53906H129.518V7.45459ZM146.404 16.8325H137.123V23.1167H148.016V27H132.289V3.53906H147.983V7.45459H137.123V13.0459H146.404V16.8325ZM73.4111 35.5391L79.4375 52.5547L85.4316 35.5391H91.7803V59H86.9302V52.5869L87.4136 41.5171L81.0811 59H77.7617L71.4453 41.5332L71.9287 52.5869V59H67.0947V35.5391H73.4111ZM103.64 46.1094L108.522 35.5391H113.807L106.105 50.4922V59H101.19V50.4922L93.4883 35.5391H98.7896L103.64 46.1094ZM138.283 49.4126H129.002V59H124.168V35.5391H139.443V39.4546H129.002V45.5132H138.283V49.4126ZM147.387 59H142.553V35.5391H147.387V59ZM169.06 39.4546H161.873V59H157.039V39.4546H149.949V35.5391H169.06V39.4546ZM190.909 59H186.075L176.665 43.5635V59H171.831V35.5391H176.665L186.091 51.0078V35.5391H190.909V59ZM209.246 48.8325H199.965V55.1167H210.857V59H195.131V35.5391H210.825V39.4546H199.965V45.0459H209.246V48.8325ZM225.859 52.8447C225.859 51.9316 225.537 51.2334 224.892 50.75C224.248 50.2559 223.087 49.7402 221.412 49.2031C219.736 48.6553 218.409 48.1182 217.432 47.5918C214.768 46.1523 213.436 44.2134 213.436 41.7749C213.436 40.5073 213.79 39.3794 214.499 38.3911C215.219 37.3921 216.245 36.6133 217.577 36.0547C218.919 35.4961 220.423 35.2168 222.088 35.2168C223.764 35.2168 225.257 35.5229 226.568 36.1353C227.878 36.7368 228.894 37.5908 229.613 38.6973C230.344 39.8037 230.709 41.0605 230.709 42.4678H225.875C225.875 41.3936 225.537 40.561 224.86 39.9702C224.183 39.3687 223.232 39.0679 222.008 39.0679C220.826 39.0679 219.908 39.3203 219.252 39.8252C218.597 40.3193 218.27 40.9746 218.27 41.791C218.27 42.5537 218.651 43.1929 219.414 43.7085C220.187 44.2241 221.32 44.7075 222.813 45.1587C225.563 45.9858 227.567 47.0117 228.824 48.2363C230.081 49.4609 230.709 50.9863 230.709 52.8125C230.709 54.8428 229.941 56.438 228.405 57.5981C226.869 58.7476 224.801 59.3223 222.201 59.3223C220.396 59.3223 218.753 58.9946 217.271 58.3394C215.788 57.6733 214.655 56.7656 213.871 55.6162C213.097 54.4668 212.71 53.1348 212.71 51.6201H217.561C217.561 54.209 219.107 55.5034 222.201 55.5034C223.351 55.5034 224.248 55.2725 224.892 54.8105C225.537 54.3379 225.859 53.6826 225.859 52.8447ZM246.162 52.8447C246.162 51.9316 245.839 51.2334 245.195 50.75C244.55 50.2559 243.39 49.7402 241.714 49.2031C240.039 48.6553 238.712 48.1182 237.734 47.5918C235.07 46.1523 233.738 44.2134 233.738 41.7749C233.738 40.5073 234.093 39.3794 234.802 38.3911C235.521 37.3921 236.547 36.6133 237.879 36.0547C239.222 35.4961 240.726 35.2168 242.391 35.2168C244.067 35.2168 245.56 35.5229 246.871 36.1353C248.181 36.7368 249.196 37.5908 249.916 38.6973C250.646 39.8037 251.012 41.0605 251.012 42.4678H246.178C246.178 41.3936 245.839 40.561 245.163 39.9702C244.486 39.3687 243.535 39.0679 242.311 39.0679C241.129 39.0679 240.21 39.3203 239.555 39.8252C238.9 40.3193 238.572 40.9746 238.572 41.791C238.572 42.5537 238.954 43.1929 239.716 43.7085C240.49 44.2241 241.623 44.7075 243.116 45.1587C245.866 45.9858 247.87 47.0117 249.126 48.2363C250.383 49.4609 251.012 50.9863 251.012 52.8125C251.012 54.8428 250.244 56.438 248.708 57.5981C247.171 58.7476 245.104 59.3223 242.504 59.3223C240.699 59.3223 239.056 58.9946 237.573 58.3394C236.091 57.6733 234.958 56.7656 234.173 55.6162C233.4 54.4668 233.013 53.1348 233.013 51.6201H237.863C237.863 54.209 239.41 55.5034 242.504 55.5034C243.653 55.5034 244.55 55.2725 245.195 54.8105C245.839 54.3379 246.162 53.6826 246.162 52.8447Z" fill="white"/>
<path d="M111 12.2726L102.279 11.6993L98.9952 3.44856L95.711 11.6993L87 12.2726L93.6813 17.9457L91.4888 26.5515L98.9952 21.8067L106.502 26.5515L104.309 17.9457L111 12.2726Z" fill="#FF5A00"/>
</svg>
