<svg width="41" height="41" viewBox="0 0 41 41" fill="none" xmlns="http://www.w3.org/2000/svg">
<path d="M32.4576 13.6667V11.9584C32.4576 5.36588 27.0935 0 20.4993 0C13.9051 0 8.54102 5.36587 8.54102 11.9583V13.6666C5.71546 13.6666 3.41602 15.9661 3.41602 18.7916V35.875C3.41602 38.7006 5.71546 41 8.54102 41H32.4577C35.2833 41 37.5827 38.7006 37.5827 35.875V18.7917C37.5826 15.9661 35.2833 13.6667 32.4576 13.6667ZM11.9576 11.9583C11.9576 7.24843 15.7894 3.41661 20.4993 3.41661C25.2092 3.41661 29.041 7.24843 29.041 11.9583V13.6666H11.9576V11.9583ZM34.166 35.875C34.166 36.818 33.3989 37.5833 32.4577 37.5833H8.54102C7.5997 37.5833 6.83271 36.818 6.83271 35.875V18.7917C6.83271 17.8487 7.59978 17.0834 8.54102 17.0834H32.4577C33.399 17.0834 34.166 17.8487 34.166 18.7917V35.875Z" fill="#FF5A00"/>
<path d="M20.5 19.6458C17.6744 19.6458 15.375 21.9453 15.375 24.7708C15.375 26.9951 16.8083 28.8743 18.7917 29.5815V32.4583C18.7917 33.403 19.557 34.1666 20.5 34.1666C21.443 34.1666 22.2083 33.403 22.2083 32.4583V29.5815C24.1917 28.8743 25.625 26.9951 25.625 24.7708C25.625 21.9453 23.3256 19.6458 20.5 19.6458ZM20.5 26.4792C19.5587 26.4792 18.7917 25.7139 18.7917 24.7709C18.7917 23.8279 19.5587 23.0625 20.5 23.0625C21.4413 23.0625 22.2083 23.8278 22.2083 24.7708C22.2083 25.7138 21.4413 26.4792 20.5 26.4792Z" fill="#FF5A00"/>
</svg>
