<svg width="46" height="46" viewBox="0 0 46 46" fill="none" xmlns="http://www.w3.org/2000/svg">
<path d="M40.0701 5.73228H5.9299C4.52595 5.73636 3.38846 6.87385 3.38437 8.27781V11.8738H42.6156L42.6156 8.27801L42.6156 8.27759M40.0701 5.73228L40.0703 5.58228C41.5569 5.58649 42.7614 6.79095 42.7656 8.27759H42.6156M40.0701 5.73228C41.474 5.73636 42.6114 6.87373 42.6156 8.27759M40.0701 5.73228L42.6156 8.27759M5.93011 39.9323H40.0699L40.0703 39.9323M5.93011 39.9323L42.7656 37.387C42.7614 38.8736 41.5569 40.0781 40.0703 40.0823V39.9323M5.93011 39.9323C5.92997 39.9323 5.92983 39.9323 5.92969 39.9323C4.52583 39.9281 3.38846 38.7906 3.38437 37.3867V13.9707H42.6156L42.6156 37.3865M5.93011 39.9323L5.92969 40.0823L42.6156 37.3865M40.0703 39.9323C41.4741 39.9281 42.6114 38.7907 42.6156 37.387C42.6156 37.3868 42.6156 37.3867 42.6156 37.3865M40.0703 39.9323L42.6156 37.3865M5.92969 3.6354L5.92964 3.6354C3.36629 3.63627 1.28866 5.71422 1.2875 8.27752V8.27759L1.2875 37.387L1.2875 37.387C1.28866 39.9504 3.3663 42.028 5.92962 42.0292H5.92969H40.0703H40.0704C42.6337 42.028 44.7113 39.9504 44.7125 37.387V37.387V8.27759V8.27752C44.7113 5.71422 42.6337 3.63627 40.0704 3.6354L5.92969 3.6354Z" fill="#FF5A00" stroke="#FF5A00" stroke-width="0.3"/>
<path d="M17.0188 22.3289C17.0188 20.839 15.8107 19.6309 14.3208 19.6309C12.8307 19.6317 11.6232 20.8392 11.6227 22.3289H17.0188ZM17.0188 22.3289C17.0188 23.8192 15.8107 25.0272 14.3207 25.0272M17.0188 22.3289L14.3207 25.0272M14.3207 25.0272C12.8305 25.0272 11.6227 23.8192 11.6227 22.329L14.3207 25.0272ZM14.3205 27.1151H14.3207C16.9689 27.1151 19.1156 24.9681 19.1156 22.3202C19.1156 19.6718 16.9689 17.5253 14.3207 17.5253C11.6725 17.5253 9.52578 19.6718 9.52578 22.3202L9.52578 22.3204C9.52926 24.9667 11.6739 27.1114 14.3205 27.1151Z" fill="#FF5A00" stroke="#FF5A00" stroke-width="0.3"/>
<path d="M7.0375 36.0665L7.0375 36.0669C7.03914 36.6449 7.50746 37.1133 8.08551 37.1149H8.08594L20.5562 37.1149L20.5567 37.1149C21.1347 37.1133 21.603 36.6449 21.6047 36.0669V36.0665C21.6047 33.9991 20.8544 32.092 19.4776 30.6879C18.1248 29.2961 16.2622 28.5173 14.3211 28.5313C12.3802 28.5173 10.5174 29.2961 9.16455 30.6879C7.78781 32.092 7.0375 33.9991 7.0375 36.0665ZM17.9783 32.1554C18.7402 32.9416 19.243 33.9404 19.421 35.018H9.22096C9.39744 33.9401 9.9004 32.9405 10.6638 32.1555C11.6297 31.178 12.9469 30.6282 14.3211 30.6282C15.6953 30.6282 17.0124 31.178 17.9783 32.1554Z" fill="#FF5A00" stroke="#FF5A00" stroke-width="0.3"/>
<path d="M37.8604 28.8905H26.4951C25.9162 28.8905 25.4467 29.36 25.4467 29.939C25.4467 30.5176 25.9161 30.9874 26.4951 30.9874H37.8604C38.4393 30.9874 38.9088 30.5176 38.9088 29.939C38.9088 29.36 38.4393 28.8905 37.8604 28.8905Z" fill="#FF5A00" stroke="#FF5A00" stroke-width="0.3"/>
<path d="M37.8604 34.1195H26.4951C25.9162 34.1195 25.4467 34.5887 25.4467 35.168C25.4467 35.7469 25.9162 36.2164 26.4951 36.2164H37.8604C38.4393 36.2164 38.9088 35.7469 38.9088 35.168C38.9088 34.5887 38.4393 34.1195 37.8604 34.1195Z" fill="#FF5A00" stroke="#FF5A00" stroke-width="0.3"/>
<path d="M37.8604 18.4325H26.4951C25.9162 18.4325 25.4467 18.902 25.4467 19.481C25.4467 20.0602 25.9162 20.5294 26.4951 20.5294H37.8604C38.4393 20.5294 38.9088 20.0602 38.9088 19.481C38.9088 18.902 38.4393 18.4325 37.8604 18.4325Z" fill="#FF5A00" stroke="#FF5A00" stroke-width="0.3"/>
<path d="M37.8604 23.6615H26.4951C25.9161 23.6615 25.4467 24.1313 25.4467 24.71C25.4467 25.2892 25.9162 25.7584 26.4951 25.7584H37.8604C38.4393 25.7584 38.9088 25.2892 38.9088 24.71C38.9088 24.1313 38.4393 23.6615 37.8604 23.6615Z" fill="#FF5A00" stroke="#FF5A00" stroke-width="0.3"/>
</svg>
