<svg width="39" height="39" viewBox="0 0 39 39" fill="none" xmlns="http://www.w3.org/2000/svg">
<g clip-path="url(#clip0)">
<path d="M30.8222 24.1591C30.0238 23.3278 29.0608 22.8833 28.0401 22.8833C27.0277 22.8833 26.0564 23.3195 25.225 24.1509L22.624 26.7437C22.4099 26.6285 22.1959 26.5215 21.9902 26.4145C21.6938 26.2663 21.414 26.1264 21.1753 25.9782C18.7388 24.4308 16.5246 22.4141 14.401 19.8048C13.3721 18.5043 12.6806 17.4095 12.1785 16.2983C12.8535 15.681 13.4791 15.0389 14.0882 14.4216C14.3187 14.1911 14.5491 13.9524 14.7796 13.7219C16.5082 11.9934 16.5082 9.7545 14.7796 8.02594L12.5325 5.77882C12.2773 5.52365 12.0139 5.26025 11.767 4.99685C11.2731 4.48652 10.7545 3.95972 10.2195 3.46585C9.42108 2.67565 8.46626 2.25586 7.46205 2.25586C6.45785 2.25586 5.48656 2.67565 4.66344 3.46585C4.65521 3.47408 4.65521 3.47408 4.64698 3.48231L1.84836 6.30562C0.794769 7.35921 0.19389 8.64328 0.0621906 10.1331C-0.135359 12.5366 0.572526 14.7755 1.11579 16.2407C2.44924 19.8377 4.4412 23.1714 7.41267 26.7437C11.0179 31.0487 15.3558 34.4481 20.311 36.8434C22.2042 37.7406 24.7311 38.8025 27.5545 38.9835C27.7273 38.9918 27.9084 39 28.073 39C29.9744 39 31.5713 38.3168 32.8224 36.9587C32.8307 36.9422 32.8471 36.934 32.8554 36.9175C33.2834 36.3989 33.7773 35.9298 34.2958 35.4277C34.6498 35.0902 35.0119 34.7362 35.3659 34.3658C36.1808 33.518 36.6088 32.5303 36.6088 31.5178C36.6088 30.4972 36.1725 29.5176 35.3412 28.6945L30.8222 24.1591ZM33.769 32.8266C33.7608 32.8266 33.7608 32.8348 33.769 32.8266C33.448 33.1723 33.1188 33.4851 32.7648 33.8308C32.2298 34.3411 31.6865 34.8762 31.1762 35.4771C30.3448 36.366 29.3653 36.7858 28.0812 36.7858C27.9578 36.7858 27.8261 36.7858 27.7026 36.7776C25.2579 36.6212 22.9861 35.6664 21.2823 34.8515C16.6234 32.5961 12.5325 29.3942 9.13299 25.3362C6.32615 21.9532 4.44943 18.8253 3.20652 15.467C2.44101 13.4174 2.16115 11.8205 2.28462 10.3142C2.36693 9.35117 2.73734 8.55274 3.42053 7.86955L6.22737 5.0627C6.6307 4.68407 7.05872 4.47829 7.47852 4.47829C7.99708 4.47829 8.41687 4.79107 8.68027 5.05447C8.68851 5.0627 8.69674 5.07094 8.70497 5.07917C9.20707 5.54835 9.68448 6.03399 10.1866 6.55256C10.4418 6.81595 10.7052 7.07935 10.9686 7.35098L13.2157 9.5981C14.0882 10.4706 14.0882 11.2773 13.2157 12.1498C12.977 12.3885 12.7465 12.6272 12.5078 12.8577C11.8164 13.5655 11.1579 14.224 10.4418 14.8661C10.4253 14.8825 10.4088 14.8908 10.4006 14.9072C9.69271 15.6151 9.82441 16.3065 9.97257 16.7757C9.98081 16.8004 9.98904 16.8251 9.99727 16.8498C10.5817 18.2656 11.4048 19.599 12.656 21.1877L12.6642 21.1959C14.936 23.9945 17.3313 26.1758 19.9735 27.8467C20.311 28.0607 20.6567 28.2336 20.9859 28.3982C21.2823 28.5464 21.5621 28.6863 21.8008 28.8345C21.8338 28.8509 21.8667 28.8756 21.8996 28.8921C22.1795 29.032 22.4429 29.0979 22.7145 29.0979C23.3977 29.0979 23.8257 28.6698 23.9656 28.5299L26.7807 25.7148C27.0606 25.435 27.5051 25.0975 28.0236 25.0975C28.534 25.0975 28.9538 25.4185 29.2089 25.6984C29.2172 25.7066 29.2172 25.7066 29.2254 25.7148L33.7608 30.2502C34.6086 31.0898 34.6086 31.9541 33.769 32.8266Z" fill="#FF5A00"/>
<path d="M21.0763 9.27713C23.2329 9.63931 25.1919 10.66 26.7558 12.2239C28.3198 13.7878 29.3322 15.7469 29.7026 17.9035C29.7931 18.4467 30.2623 18.8253 30.7973 18.8253C30.8632 18.8253 30.9208 18.8171 30.9867 18.8089C31.5958 18.7101 31.9991 18.1339 31.9003 17.5248C31.4558 14.9155 30.2212 12.5367 28.3362 10.6517C26.4513 8.7668 24.0725 7.53212 21.4632 7.08763C20.854 6.98886 20.2861 7.39219 20.1791 7.99306C20.0721 8.59394 20.4672 9.17836 21.0763 9.27713Z" fill="#FF5A00"/>
<path d="M38.9545 17.2037C38.222 12.907 36.1971 8.9972 33.0857 5.8858C29.9743 2.7744 26.0645 0.749519 21.7678 0.0169411C21.1669 -0.0900648 20.5989 0.321496 20.4919 0.922375C20.3931 1.53149 20.7965 2.09944 21.4056 2.20644C25.2413 2.85671 28.7396 4.67581 31.5218 7.44973C34.3039 10.2319 36.1148 13.7302 36.765 17.5659C36.8556 18.1092 37.3248 18.4878 37.8598 18.4878C37.9256 18.4878 37.9833 18.4796 38.0491 18.4713C38.65 18.3808 39.0615 17.8046 38.9545 17.2037Z" fill="#FF5A00"/>
</g>
<defs>
<clipPath id="clip0">
<rect width="39" height="39" fill="white"/>
</clipPath>
</defs>
</svg>
