<svg width="19" height="20" viewBox="0 0 19 20" fill="none" xmlns="http://www.w3.org/2000/svg">
<path d="M18.3913 15.8316C18.3914 15.8316 18.3915 15.8314 18.3914 15.8313L14.577 11.9231C13.884 11.2131 13.7601 10.1452 14.0099 9.18501C14.2557 8.24044 14.3148 7.25139 14.1776 6.27416C13.9628 4.74466 13.2778 3.31977 12.2174 2.19682C11.5818 1.52288 10.8189 0.981708 9.97278 0.604622C9.12665 0.227536 8.21414 0.0220301 7.28805 0L7.12514 0C5.21314 0.0256925 3.38936 0.808589 2.05375 2.17701C0.718139 3.54542 -0.0202794 5.38766 0.000423886 7.29972C-0.0200897 9.21166 0.718413 11.0537 2.054 12.422C3.38959 13.7902 5.21326 14.573 7.12514 14.5987H7.28734C9.25733 14.5555 11.4285 14.7203 12.8049 16.1303L15.4521 18.8423C15.6426 19.0396 15.8709 19.1965 16.1234 19.3037C16.3758 19.4109 16.6473 19.4661 16.9215 19.4661C17.1958 19.4661 17.4673 19.4109 17.7197 19.3037C17.9722 19.1965 18.2005 19.0396 18.3909 18.8423C18.7816 18.4385 19 17.8987 19 17.3369C19 16.7753 18.7817 16.2356 18.3912 15.8319C18.3911 15.8318 18.3912 15.8316 18.3913 15.8316ZM7.26102 13.3808H7.12514C5.53189 13.3594 4.01213 12.7071 2.89912 11.5669C1.7861 10.4267 1.17066 8.8916 1.18776 7.2983C1.17066 5.70499 1.7861 4.16993 2.89912 3.02971C4.01213 1.88949 5.53189 1.23717 7.12514 1.21579H7.26102C8.82777 1.2794 10.3086 1.94913 11.3909 3.08368C12.4733 4.21823 13.0727 5.72887 13.0625 7.29688C13.0734 8.86538 12.4744 10.3767 11.3919 11.5119C10.3095 12.6471 8.82827 13.3172 7.26102 13.3808ZM17.5515 17.9818C17.5515 17.9817 17.5513 17.9816 17.5512 17.9817C17.4697 18.0662 17.372 18.1333 17.2639 18.1792C17.1557 18.2251 17.0394 18.2488 16.9219 18.2488C16.8044 18.2488 16.6881 18.2251 16.5799 18.1792C16.4717 18.1333 16.3739 18.066 16.2923 17.9815L12.1785 13.767C11.8124 13.3919 11.8545 12.7851 12.2167 12.4062C12.5179 12.0905 13.0277 12.0566 13.3325 12.3688L17.5515 16.6917C17.7197 16.8644 17.8138 17.0959 17.8138 17.3369C17.8138 17.5779 17.7198 17.8093 17.5517 17.9819C17.5516 17.982 17.5515 17.9819 17.5515 17.9818Z" fill="black"/>
</svg>
