<svg width="20" height="20" viewBox="0 0 20 20" fill="none" xmlns="http://www.w3.org/2000/svg">
<path d="M17.9749 14.495C16.2388 12.1243 14.0747 11.5749 12.9326 11.2142V10.3757C13.702 9.61348 14.1795 8.55648 14.1795 7.38988C14.1795 6.93937 14.1795 3.37953 14.1795 2.93094C14.1795 1.3148 12.8647 0 11.2486 0H8.71197C7.09588 0 5.78107 1.3148 5.78107 2.9309C5.78107 3.37949 5.78107 6.93934 5.78107 7.38984C5.78107 8.53809 6.24369 9.58012 6.99197 10.3395V11.2379C5.9267 11.5743 3.76029 12.1251 2.02475 14.495C0.972598 15.9318 0.416504 17.6327 0.416504 19.4141C0.416504 19.7377 0.678848 20 1.00244 20H18.9972C19.3208 20 19.5832 19.7377 19.5832 19.4141C19.5831 17.6327 19.0271 15.9318 17.9749 14.495ZM11.7606 11.4724L10.0736 14.113C10.0017 14.1084 9.95029 14.1085 9.87482 14.1139L8.16381 11.493V11.1789C9.29662 11.7252 10.6224 11.7313 11.7606 11.1958V11.4724ZM7.35674 5.94445C6.88045 4.4175 6.96436 4.68621 6.95295 4.65055V4.43699H13.0076V4.64387C12.9951 4.68152 13.0846 4.40602 12.5856 5.94453C9.76459 5.52922 10.2188 5.52305 7.35674 5.94445ZM6.95295 2.9309C6.95295 1.96098 7.74205 1.17188 8.71197 1.17188H11.2486C12.2185 1.17188 13.0076 1.96098 13.0076 2.9309V3.26512H6.95295V2.9309ZM6.95295 7.07184C7.0749 7.11516 7.19748 7.13387 7.28057 7.13387C7.34178 7.13387 7.20686 7.15102 9.14057 6.86629C10.1647 6.71566 10.7223 6.85469 12.576 7.12758C12.712 7.14762 12.8799 7.1132 13.0076 7.06523V7.38984C13.0076 9.06117 11.6496 10.4209 9.98029 10.4209C8.31818 10.4209 6.95295 9.06781 6.95295 7.38984V7.07184V7.07184ZM7.33033 12.36L8.83443 14.6639C7.9892 15.7256 8.9301 17.2857 10.2733 17.0117V17.5632C10.2733 17.8868 10.5356 18.1491 10.8592 18.1491C11.1828 18.1491 11.4452 17.8868 11.4452 17.5632V15.5754C11.4452 15.2266 11.3226 14.9061 11.1185 14.6541L12.5985 12.3376C13.4569 12.6087 13.9113 12.7293 14.5832 13.0795V18.8281H5.4165V13.0795C6.08787 12.7295 6.55365 12.6053 7.33033 12.36ZM4.24463 13.8448V18.8281H1.61189C1.77213 16.84 2.74182 15.0531 4.24463 13.8448ZM15.755 18.8281V13.8448C17.2578 15.0531 18.2275 16.84 18.3878 18.8281H15.755Z" fill="#FF5A00"/>
</svg>
