<svg width="110" height="110" viewBox="0 0 110 110" fill="none" xmlns="http://www.w3.org/2000/svg">
<rect width="110" height="110" rx="55" fill="#777777" fill-opacity="0.1"/>
<path d="M64.588 55.0781C63.7425 54.6762 62.8797 54.3299 62.0019 54.0399C64.845 51.9059 66.6875 48.5079 66.6875 44.6875C66.6875 38.243 61.4445 33 55 33C48.5554 33 43.3125 38.243 43.3125 44.6875C43.3125 48.5121 45.1591 51.9135 48.0075 54.047C45.3977 54.9062 42.949 56.2432 40.8057 58.0061C36.8756 61.2388 34.143 65.7479 33.1115 70.7028C32.7882 72.2553 33.1755 73.85 34.174 75.0777C35.1675 76.2994 36.6407 77 38.2158 77H59.3828C60.332 77 61.1015 76.2305 61.1015 75.2812C61.1015 74.332 60.332 73.5625 59.3828 73.5625H38.2158C37.482 73.5625 37.0394 73.1529 36.8409 72.9089C36.4981 72.4873 36.3654 71.9386 36.4768 71.4033C38.2605 62.8358 45.8175 56.5773 54.5443 56.3662C54.6955 56.3721 54.8473 56.375 55 56.375C55.1541 56.375 55.3075 56.372 55.4601 56.3661C58.1345 56.4288 60.7066 57.0391 63.1123 58.1828C63.9697 58.5901 64.9949 58.2257 65.4024 57.3683C65.81 56.511 65.4454 55.4856 64.588 55.0781ZM55.4192 52.9269C55.2797 52.9244 55.14 52.9231 55 52.9231C54.8613 52.9231 54.7226 52.9245 54.584 52.9271C50.2274 52.7098 46.75 49.0971 46.75 44.6875C46.75 40.1384 50.4509 36.4375 55 36.4375C59.5491 36.4375 63.25 40.1384 63.25 44.6875C63.25 49.096 59.7742 52.708 55.4192 52.9269Z" fill="#C4C4C4"/>
<path d="M75.2812 67.1172H70.5547V62.3906C70.5547 61.4414 69.7852 60.6719 68.8359 60.6719C67.8867 60.6719 67.1172 61.4414 67.1172 62.3906V67.1172H62.3906C61.4414 67.1172 60.6719 67.8867 60.6719 68.8359C60.6719 69.7852 61.4414 70.5547 62.3906 70.5547H67.1172V75.2812C67.1172 76.2305 67.8867 77 68.8359 77C69.7852 77 70.5547 76.2305 70.5547 75.2812V70.5547H75.2812C76.2305 70.5547 77 69.7852 77 68.8359C77 67.8867 76.2305 67.1172 75.2812 67.1172Z" fill="#C4C4C4"/>
</svg>
