<svg width="16" height="27" viewBox="0 0 16 27" fill="none" xmlns="http://www.w3.org/2000/svg">
<path d="M10.5317 13.5057L0.431102 3.40463C0.15298 3.12717 -1.90735e-05 2.7562 -1.90735e-05 2.36063C-1.90735e-05 1.96485 0.15298 1.5941 0.431102 1.3162L1.31617 0.431561C1.59386 0.15322 1.96505 0 2.36061 0C2.75618 0 3.12693 0.15322 3.40483 0.431561L15.4312 12.4578C15.7102 12.7365 15.863 13.109 15.8619 13.505C15.863 13.9028 15.7105 14.2749 15.4312 14.5539L3.41603 26.5684C3.13813 26.8468 2.76737 27 2.37159 27C1.97603 27 1.60527 26.8468 1.32715 26.5684L0.442298 25.6838C-0.133483 25.108 -0.133483 24.1707 0.442298 23.5951L10.5317 13.5057Z" fill="white"/>
</svg>
