<svg width="16" height="27" viewBox="0 0 16 27" fill="none" xmlns="http://www.w3.org/2000/svg">
<path d="M5.3302 13.5057L15.4308 3.40463C15.709 3.12717 15.862 2.7562 15.862 2.36063C15.862 1.96485 15.709 1.5941 15.4308 1.3162L14.5458 0.431561C14.2681 0.15322 13.8969 0 13.5013 0C13.1058 0 12.735 0.15322 12.4571 0.431561L0.430689 12.4578C0.151689 12.7365 -0.00109168 13.109 5.88102e-06 13.505C-0.00109168 13.9028 0.151469 14.2749 0.430689 14.5539L12.4459 26.5684C12.7238 26.8468 13.0946 27 13.4903 27C13.8859 27 14.2567 26.8468 14.5348 26.5684L15.4196 25.6838C15.9954 25.108 15.9954 24.1707 15.4196 23.5951L5.3302 13.5057Z" fill="white"/>
</svg>
