<svg width="28" height="28" viewBox="0 0 28 28" fill="none" xmlns="http://www.w3.org/2000/svg">
<path d="M1.35917 12.67H0.970833C0.434931 12.67 0 13.1919 0 13.835C0 14.4781 0.434931 15 0.970833 15H1.35917C1.89507 15 2.33 14.4781 2.33 13.835C2.33 13.1919 1.89507 12.67 1.35917 12.67Z" fill="#fff"/>
<path d="M27.0417 12.67H5.95833C5.42933 12.67 5 13.1919 5 13.835C5 14.4781 5.42933 15 5.95833 15H27.0417C27.5707 15 28 14.4781 28 13.835C28 13.1919 27.5707 12.67 27.0417 12.67Z" fill="#fff"/>
<path d="M26.8333 21.802H1.16667C0.522664 21.802 0 22.3247 0 22.9687C0 23.6127 0.522664 24.1354 1.16667 24.1354H26.8333C27.4773 24.1354 28 23.6127 28 22.9687C28 22.3247 27.4773 21.802 26.8333 21.802Z" fill="#fff"/>
<path d="M26.8333 3.91324H1.16667C0.522664 3.91324 0 4.43591 0 5.07991C0 5.72392 0.522664 6.24658 1.16667 6.24658H26.8333C27.4773 6.24658 28 5.72392 28 5.07991C28 4.43591 27.4773 3.91324 26.8333 3.91324Z" fill="#fff"/>
</svg>
