<svg width="12" height="12" viewBox="0 0 12 12" fill="none" xmlns="http://www.w3.org/2000/svg">
<path d="M11.6608 8.8068L9.98617 7.13216C9.38808 6.53408 8.37134 6.77333 8.1321 7.55082C7.95268 8.08912 7.35459 8.38816 6.81632 8.26852C5.62015 7.96948 4.00532 6.41446 3.70628 5.15848C3.52685 4.62018 3.8857 4.0221 4.42398 3.8427C5.20149 3.60346 5.44072 2.58672 4.84264 1.98863L3.168 0.313995C2.68953 -0.104665 1.97183 -0.104665 1.55317 0.313995L0.41681 1.45036C-0.719552 2.64653 0.536427 5.81638 3.34743 8.62737C6.15842 11.4384 9.32827 12.7542 10.5244 11.558L11.6608 10.4216C12.0795 9.94316 12.0795 9.22546 11.6608 8.8068Z" fill="white"/>
</svg>
