<svg width="26" height="26" viewBox="0 0 26 26" fill="none" xmlns="http://www.w3.org/2000/svg">
<path d="M23.2143 2.78571H20.4286V0.928589C20.4286 0.415735 20.0128 0 19.5 0C18.9871 0 18.5714 0.415735 18.5714 0.928589V2.78571H7.42855V0.928589C7.42855 0.415735 7.01281 0 6.50001 0C5.98721 0 5.57142 0.415735 5.57142 0.928589V2.78571H2.78571C1.2472 2.78571 0 4.03292 0 5.57142V23.2143C0 24.7528 1.2472 26 2.78571 26H23.2143C24.7528 26 26 24.7528 26 23.2143V5.57142C26 4.03292 24.7528 2.78571 23.2143 2.78571ZM24.1428 23.2143C24.1428 23.7271 23.7271 24.1429 23.2142 24.1429H2.78571C2.27286 24.1429 1.85712 23.7271 1.85712 23.2143V11.1428H24.1428V23.2143ZM24.1428 9.28573H1.85712V5.57142C1.85712 5.05857 2.27286 4.64284 2.78571 4.64284H5.57142V6.49996C5.57142 7.01281 5.98716 7.42855 6.50001 7.42855C7.01287 7.42855 7.4286 7.01281 7.4286 6.49996V4.64284H18.5715V6.49996C18.5715 7.01281 18.9872 7.42855 19.5 7.42855C20.0129 7.42855 20.4286 7.01281 20.4286 6.49996V4.64284H23.2143C23.7272 4.64284 24.1429 5.05857 24.1429 5.57142V9.28573H24.1428Z" fill="#005BEA"/>
<path d="M7.4283 13H5.57117C5.05831 13 4.64258 13.4157 4.64258 13.9286C4.64258 14.4414 5.05831 14.8572 5.57117 14.8572H7.4283C7.94115 14.8572 8.35689 14.4414 8.35689 13.9286C8.35689 13.4157 7.94115 13 7.4283 13Z" fill="#005BEA"/>
<path d="M13.9283 13H12.0712C11.5583 13 11.1426 13.4157 11.1426 13.9286C11.1426 14.4414 11.5583 14.8572 12.0712 14.8572H13.9283C14.4412 14.8572 14.8569 14.4414 14.8569 13.9286C14.8569 13.4157 14.4412 13 13.9283 13Z" fill="#005BEA"/>
<path d="M20.4293 13H18.5721C18.0593 13 17.6436 13.4157 17.6436 13.9286C17.6436 14.4414 18.0593 14.8572 18.5721 14.8572H20.4293C20.9421 14.8572 21.3579 14.4414 21.3579 13.9286C21.3578 13.4157 20.9421 13 20.4293 13Z" fill="#005BEA"/>
<path d="M7.4283 16.7139H5.57117C5.05831 16.7139 4.64258 17.1296 4.64258 17.6425C4.64258 18.1553 5.05831 18.571 5.57117 18.571H7.4283C7.94115 18.571 8.35689 18.1553 8.35689 17.6425C8.35689 17.1296 7.94115 16.7139 7.4283 16.7139Z" fill="#005BEA"/>
<path d="M13.9283 16.7139H12.0712C11.5583 16.7139 11.1426 17.1296 11.1426 17.6425C11.1426 18.1553 11.5583 18.571 12.0712 18.571H13.9283C14.4412 18.571 14.8569 18.1553 14.8569 17.6425C14.8569 17.1296 14.4412 16.7139 13.9283 16.7139Z" fill="#005BEA"/>
<path d="M20.4293 16.7139H18.5721C18.0593 16.7139 17.6436 17.1296 17.6436 17.6425C17.6436 18.1553 18.0593 18.571 18.5721 18.571H20.4293C20.9421 18.571 21.3579 18.1553 21.3579 17.6425C21.3578 17.1296 20.9421 16.7139 20.4293 16.7139Z" fill="#005BEA"/>
<path d="M7.4283 20.4287H5.57117C5.05831 20.4287 4.64258 20.8444 4.64258 21.3573C4.64258 21.8702 5.05831 22.2858 5.57117 22.2858H7.4283C7.94115 22.2858 8.35689 21.8701 8.35689 21.3572C8.35689 20.8444 7.94115 20.4287 7.4283 20.4287Z" fill="#005BEA"/>
<path d="M13.9283 20.4287H12.0712C11.5583 20.4287 11.1426 20.8444 11.1426 21.3573C11.1426 21.8702 11.5583 22.2859 12.0712 22.2859H13.9283C14.4412 22.2859 14.8569 21.8702 14.8569 21.3573C14.8569 20.8444 14.4412 20.4287 13.9283 20.4287Z" fill="#005BEA"/>
<path d="M20.4293 20.4287H18.5721C18.0593 20.4287 17.6436 20.8444 17.6436 21.3573C17.6436 21.8702 18.0593 22.2859 18.5721 22.2859H20.4293C20.9421 22.2859 21.3579 21.8702 21.3579 21.3573C21.3579 20.8444 20.9421 20.4287 20.4293 20.4287Z" fill="#005BEA"/>
</svg>
