<svg width="24" height="28" viewBox="0 0 24 28" fill="none" xmlns="http://www.w3.org/2000/svg">
<path d="M15.9682 9.96094C15.7974 9.96094 15.6336 10.0288 15.5128 10.1496C15.3921 10.2703 15.3242 10.4341 15.3242 10.6049V22.7769C15.3242 22.9477 15.3921 23.1115 15.5128 23.2323C15.6336 23.3531 15.7974 23.4209 15.9682 23.4209C16.139 23.4209 16.3028 23.3531 16.4236 23.2323C16.5444 23.1115 16.6122 22.9477 16.6122 22.7769V10.6079C16.6126 10.5231 16.5963 10.439 16.5641 10.3606C16.5319 10.2821 16.4845 10.2107 16.4247 10.1506C16.3648 10.0905 16.2937 10.0428 16.2154 10.0103C16.137 9.9777 16.0531 9.96094 15.9682 9.96094Z" fill="black"/>
<path d="M8.36665 9.96094C8.19585 9.96094 8.03205 10.0288 7.91128 10.1496C7.7905 10.2703 7.72266 10.4341 7.72266 10.6049V22.7769C7.72266 22.9477 7.7905 23.1115 7.91128 23.2323C8.03205 23.3531 8.19585 23.4209 8.36665 23.4209C8.53745 23.4209 8.70126 23.3531 8.82203 23.2323C8.9428 23.1115 9.01065 22.9477 9.01065 22.7769V10.6079C9.01105 10.5231 8.99468 10.439 8.96249 10.3606C8.93031 10.2821 8.88294 10.2107 8.8231 10.1506C8.76326 10.0905 8.69213 10.0428 8.6138 10.0103C8.53547 9.9777 8.45148 9.96094 8.36665 9.96094Z" fill="black"/>
<path d="M2.82934 8.18803V24.055C2.82069 24.9614 3.15875 25.8368 3.77434 26.502C4.07004 26.8154 4.42648 27.0652 4.82191 27.2363C5.21735 27.4074 5.64349 27.4961 6.07434 27.497H18.2603C18.6912 27.4961 19.1174 27.4074 19.5128 27.2364C19.9082 27.0653 20.2647 26.8154 20.5603 26.502C21.1769 25.8358 21.515 24.9588 21.5053 24.051V8.18803C22.0829 8.03504 22.5851 7.67705 22.9181 7.18091C23.2511 6.68476 23.3921 6.08439 23.3148 5.49188C23.2375 4.89937 22.9473 4.35525 22.4982 3.96111C22.0491 3.56696 21.4719 3.34975 20.8743 3.35003H17.5743V2.54403C17.5759 2.20934 17.5111 1.87767 17.3836 1.56821C17.2561 1.25875 17.0685 0.977669 16.8316 0.741238C16.5947 0.504808 16.3132 0.317731 16.0035 0.190843C15.6938 0.0639558 15.362 -0.000220224 15.0273 0.00203249H9.30334C8.96824 -0.000621828 8.63594 0.0633242 8.32576 0.190158C8.01557 0.316991 7.73367 0.504184 7.49643 0.740867C7.25919 0.97755 7.07133 1.25901 6.94377 1.56889C6.8162 1.87878 6.75148 2.21092 6.75334 2.54603V3.35103H3.45334C2.85582 3.35075 2.27862 3.56797 1.82952 3.96211C1.38042 4.35625 1.09013 4.90037 1.01285 5.49288C0.935576 6.08539 1.07659 6.68576 1.40957 7.18191C1.74255 7.67805 2.24473 8.03604 2.82234 8.18903L2.82934 8.18803ZM18.2603 26.212H6.07534C5.80428 26.2016 5.53802 26.1372 5.29215 26.0226C5.04628 25.908 4.82573 25.7455 4.6434 25.5447C4.46108 25.3438 4.32065 25.1086 4.23032 24.8528C4.13999 24.5971 4.10158 24.3258 4.11734 24.055V8.24403H20.2173V24.055C20.2331 24.3258 20.1947 24.5971 20.1044 24.8528C20.014 25.1086 19.8736 25.3438 19.6913 25.5447C19.509 25.7455 19.2884 25.908 19.0425 26.0226C18.7967 26.1372 18.5304 26.2016 18.2593 26.212H18.2603ZM8.04534 2.54403C8.04346 2.37845 8.07473 2.21416 8.13732 2.06085C8.19991 1.90754 8.29256 1.7683 8.40979 1.65135C8.52702 1.53439 8.66648 1.44209 8.81994 1.37986C8.9734 1.31764 9.13776 1.28675 9.30334 1.28903H15.0223C15.1883 1.28621 15.3532 1.31673 15.5072 1.37877C15.6612 1.44082 15.8012 1.53313 15.9189 1.65025C16.0365 1.76736 16.1295 1.9069 16.1923 2.0606C16.2551 2.21429 16.2864 2.37902 16.2843 2.54503V3.35003H8.04534V2.54403ZM3.46034 4.63803H20.8743C21.1817 4.63803 21.4765 4.76014 21.6939 4.9775C21.9112 5.19485 22.0333 5.48965 22.0333 5.79703C22.0333 6.10442 21.9112 6.39921 21.6939 6.61657C21.4765 6.83392 21.1817 6.95603 20.8743 6.95603H3.46034C3.15295 6.95603 2.85816 6.83392 2.6408 6.61657C2.42345 6.39921 2.30134 6.10442 2.30134 5.79703C2.30134 5.48965 2.42345 5.19485 2.6408 4.9775C2.85816 4.76014 3.15295 4.63803 3.46034 4.63803Z" fill="black"/>
<path d="M12.1674 9.96094C11.9967 9.96094 11.8328 10.0288 11.7121 10.1496C11.5913 10.2703 11.5234 10.4341 11.5234 10.6049V22.7769C11.5234 22.9477 11.5913 23.1115 11.7121 23.2323C11.8328 23.3531 11.9967 23.4209 12.1674 23.4209C12.3382 23.4209 12.502 23.3531 12.6228 23.2323C12.7436 23.1115 12.8114 22.9477 12.8114 22.7769V10.6079C12.8118 10.5231 12.7955 10.439 12.7633 10.3606C12.7311 10.2821 12.6837 10.2107 12.6239 10.1506C12.564 10.0905 12.4929 10.0428 12.4146 10.0103C12.3363 9.9777 12.2523 9.96094 12.1674 9.96094Z" fill="black"/>
</svg>
