<svg width="22" height="23" viewBox="0 0 22 23" fill="none" xmlns="http://www.w3.org/2000/svg">
<path d="M0.660257 7.24583C0.196453 7.83742 -0.0259838 8.4716 0.0024128 9.12471C0.0308094 9.84408 0.352633 10.4073 0.617664 10.7528C0.310038 11.5195 0.191721 12.7263 1.21872 13.6634C1.97122 14.3496 3.24904 14.6572 5.01907 14.572C6.26377 14.5153 7.30497 14.2834 7.34756 14.2739H7.3523C7.58893 14.2313 7.83976 14.1792 8.09533 14.1224C8.11426 14.4253 8.0622 15.1778 7.50374 16.8721C6.84116 18.8883 6.87903 20.4311 7.62679 21.4629C8.41242 22.5466 9.66658 22.6318 10.0357 22.6318C10.3907 22.6318 10.7172 22.4851 10.9491 22.2154C11.4745 21.6048 11.413 20.4785 11.3467 19.9579C11.9714 18.2825 13.7225 14.1745 15.2038 13.0339C15.2322 13.015 15.2559 12.9913 15.2796 12.9677C15.715 12.5086 16.0084 12.0117 16.2072 11.5763C16.4864 11.7277 16.8035 11.8129 17.1443 11.8129H20.0312C21.1197 11.8129 22 10.9279 22 9.84408V2.15345C22 1.06492 21.115 0.184643 20.0312 0.184643H17.1443C16.723 0.184643 16.3302 0.317158 16.0084 0.544327L14.8962 0.411812C14.7258 0.388149 11.6969 0.0048008 8.58753 0.0663261C8.02434 0.0237312 7.49428 6.67572e-05 7.00207 6.67572e-05C6.15492 6.67572e-05 5.41662 0.0663261 4.80137 0.198841C3.35316 0.506466 2.36403 1.12172 1.86236 2.02566C1.47902 2.71664 1.47902 3.40288 1.54054 3.83829C0.598732 4.69017 0.433088 5.63198 0.466219 6.29456C0.485149 6.67791 0.570335 7.00446 0.660257 7.24583ZM20.0312 1.46247C20.4145 1.46247 20.7222 1.77483 20.7222 2.15345V9.84881C20.7222 10.2322 20.4098 10.5398 20.0312 10.5398H17.1443C16.7609 10.5398 16.4533 10.2274 16.4533 9.84881V2.15818C16.4533 1.77483 16.7656 1.4672 17.1443 1.4672H20.0312V1.46247ZM1.87183 7.79956C2.0706 7.59132 2.10847 7.27423 1.95702 7.02813C1.95702 7.02339 1.76298 6.69211 1.73931 6.23777C1.70618 5.61778 2.00434 5.06879 2.62906 4.60025C2.8515 4.42987 2.94142 4.13645 2.84677 3.87142C2.84677 3.86668 2.64326 3.24197 2.97455 2.65038C3.29164 2.08245 3.99681 1.67544 5.0664 1.44827C5.92302 1.2637 7.08726 1.23057 8.51654 1.34415C8.53547 1.34415 8.55913 1.34415 8.5828 1.34415C11.6259 1.2779 14.7022 1.67544 14.7353 1.68018H14.74L15.218 1.73697C15.1896 1.86948 15.1754 2.01147 15.1754 2.15345V9.84881C15.1754 10.0523 15.2086 10.2511 15.2654 10.4357C15.1802 10.7528 14.9435 11.4579 14.3851 12.059C12.2601 13.7438 10.1825 19.4278 10.0925 19.6739C10.0547 19.7733 10.0452 19.8821 10.0641 19.991C10.1446 20.5211 10.1162 21.1694 10.0026 21.3635C9.75177 21.3587 9.075 21.2877 8.66798 20.7246C8.18525 20.0572 8.20418 18.8646 8.72478 17.2839C9.51987 14.8749 9.58613 13.6066 8.95668 13.0481C8.64432 12.7689 8.22784 12.7547 7.92495 12.8635C7.63626 12.9298 7.36176 12.9866 7.10146 13.0292C7.08253 13.0339 7.05887 13.0387 7.03994 13.0434C5.587 13.3605 2.98401 13.5545 2.08007 12.731C1.31337 12.0306 1.85763 11.103 1.91916 11.0036C2.09426 10.7386 2.04221 10.3931 1.80557 10.1801C1.80084 10.1754 1.30391 9.70683 1.28024 9.07738C1.26131 8.65618 1.46008 8.2255 1.87183 7.79956Z" fill="#FF5A00"/>
</svg>
