<svg width="9" height="10" viewBox="0 0 9 10" fill="none" xmlns="http://www.w3.org/2000/svg">
<path d="M1.44345 4.02447H7.6434C7.73101 4.02502 7.81679 3.99936 7.88975 3.95077C7.96271 3.90219 8.01953 3.83288 8.05294 3.75174C8.08635 3.6706 8.09481 3.58132 8.07726 3.49532C8.0597 3.40933 8.01692 3.33055 7.9544 3.26906L4.85442 0.163297C4.81397 0.121518 4.76555 0.0883026 4.71204 0.0656202C4.65853 0.0429377 4.60102 0.03125 4.54292 0.03125C4.48482 0.03125 4.42732 0.0429377 4.37381 0.0656202C4.3203 0.0883026 4.27188 0.121518 4.23143 0.163297L1.13145 3.26906C1.07039 3.33111 1.02891 3.40979 1.01218 3.4953C0.99545 3.5808 1.00421 3.66935 1.03737 3.7499C1.07054 3.83045 1.12663 3.89943 1.19866 3.94826C1.2707 3.99709 1.35548 4.02359 1.44244 4.02447H1.44345Z" fill="#ff5a00"/>
<path d="M7.64078 5.79884H1.44083C1.35322 5.79828 1.26744 5.82395 1.19448 5.87254C1.12152 5.92112 1.0647 5.99042 1.03129 6.07156C0.997884 6.1527 0.989416 6.24199 1.00697 6.32799C1.02453 6.41398 1.0673 6.49275 1.12983 6.55424L4.22981 9.66C4.27026 9.70178 4.31868 9.73499 4.37219 9.75767C4.42569 9.78035 4.48321 9.79205 4.54131 9.79205C4.59941 9.79205 4.65691 9.78035 4.71042 9.75767C4.76393 9.73499 4.81234 9.70178 4.8528 9.66L7.95278 6.55424C8.01384 6.49219 8.05532 6.41352 8.07205 6.32802C8.08878 6.24251 8.08001 6.15396 8.04685 6.07341C8.01369 5.99286 7.9576 5.92387 7.88556 5.87504C7.81353 5.82622 7.72875 5.79971 7.64178 5.79884H7.64078Z" fill="#ff5a00"/>
</svg>
