<svg width="110" height="110" viewBox="0 0 110 110" fill="none" xmlns="http://www.w3.org/2000/svg">
<rect x="0.611111" y="0.611111" width="108.778" height="108.778" rx="5.5" stroke="#C4C4C4" stroke-width="1.22222" stroke-linejoin="round" stroke-dasharray="6.11 4.89"/>
<g clip-path="url(#clip0)">
<path d="M70.5564 39.4436C66.4012 35.2884 60.8763 33 55 33C49.1237 33 43.5988 35.2884 39.4436 39.4436C35.2884 43.5988 33 49.1237 33 55C33 60.8763 35.2884 66.4012 39.4436 70.5564C43.5988 74.7116 49.1237 77 55 77C60.8763 77 66.4012 74.7116 70.5564 70.5564C74.7116 66.4012 77 60.8763 77 55C77 49.1237 74.7116 43.5988 70.5564 39.4436ZM55 73.5625C44.7647 73.5625 36.4375 65.2353 36.4375 55C36.4375 44.7647 44.7647 36.4375 55 36.4375C65.2353 36.4375 73.5625 44.7647 73.5625 55C73.5625 65.2353 65.2353 73.5625 55 73.5625ZM56.7188 53.2796H64.4531V56.7171H56.7188V64.4514H53.2812V56.7171H45.5469V53.2796H53.2812V45.5452H56.7188V53.2796Z" fill="#C4C4C4"/>
</g>
<defs>
<clipPath id="clip0">
<rect width="44" height="44" fill="white" transform="translate(33 33)"/>
</clipPath>
</defs>
</svg>
