<svg width="25" height="25" viewBox="0 0 25 25" fill="none" xmlns="http://www.w3.org/2000/svg">
<path d="M22.7015 14.6694L20.8572 10.0586L22.7015 5.4478C22.7918 5.22212 22.7642 4.96641 22.628 4.76519C22.4917 4.56392 22.2645 4.44336 22.0215 4.44336H13.4766V2.73438C13.4766 2.32988 13.1486 2.00195 12.7441 2.00195H3.71094V0.732422C3.71094 0.32793 3.38301 0 2.97852 0C2.57402 0 2.24609 0.32793 2.24609 0.732422C2.24609 3.79478 2.24609 21.6683 2.24609 24.2676C2.24609 24.6721 2.57402 25 2.97852 25C3.38301 25 3.71094 24.6721 3.71094 24.2676V13.2324H9.57031V14.9414C9.57031 15.3413 9.89614 15.6738 10.3027 15.6738H22.0215C22.2646 15.6738 22.4917 15.5533 22.628 15.352C22.7643 15.1508 22.7918 14.8951 22.7015 14.6694ZM12.0117 11.7676C11.1729 11.7676 4.61606 11.7676 3.71094 11.7676V3.4668H12.0117C12.0117 4.30557 12.0117 10.8625 12.0117 11.7676ZM12.0709 14.209L13.2619 13.018C13.4019 12.8782 13.4766 12.6857 13.4766 12.5V5.9082H20.9397L19.3883 9.78657C19.3185 9.96118 19.3185 10.156 19.3883 10.3307L20.9397 14.209H12.0709Z" fill="#005BEA"/>
</svg>
