<svg width="21" height="21" viewBox="0 0 21 21" fill="none" xmlns="http://www.w3.org/2000/svg">
<path d="M18.375 9.1875V6.5625H17.0625V9.1875H14.4375V10.5H17.0625V13.125H18.375V10.5H21V9.1875H18.375Z" fill="white"/>
<path d="M6.5625 9.1875V11.8125H10.2756C9.7335 13.3403 8.274 14.4375 6.5625 14.4375C4.39162 14.4375 2.625 12.6709 2.625 10.5C2.625 8.32912 4.39162 6.5625 6.5625 6.5625C7.50356 6.5625 8.40919 6.89981 9.11269 7.51275L10.8373 5.5335C9.65606 4.5045 8.13881 3.9375 6.5625 3.9375C2.94394 3.9375 0 6.88144 0 10.5C0 14.1186 2.94394 17.0625 6.5625 17.0625C10.1811 17.0625 13.125 14.1186 13.125 10.5V9.1875H6.5625Z" fill="white"/>
</svg>
