<svg width="18" height="18" viewBox="0 0 18 18" fill="none" xmlns="http://www.w3.org/2000/svg">
<path d="M4.75244 11.4922H3.69775V12.9922H4.75244V11.4922Z" fill="#FF5A00"/>
<path d="M17.0336 16.9453V7.57406H17.7774V3.59768H14.9212L14.9111 0.0807188H13.9322L12.8121 1.96277L11.6616 0.0807188H10.6828V3.59764H9.19934V2.33114L10.5314 0.0807188H9.38095L8.65434 1.3018L7.93283 0.0807188H6.67645L8.00852 2.31599V3.59764H5.78394C6.0757 3.5223 6.35713 3.40372 6.59064 3.24443V1.75089H5.55627V2.644C5.40991 2.70454 5.26866 2.72978 5.12234 2.72978C4.61271 2.72978 4.27968 2.37656 4.27968 1.84676C4.27968 1.30184 4.61271 0.963738 5.13745 0.963738C5.45027 0.963738 5.70762 1.09491 5.92963 1.35225L6.69154 0.681152C6.33329 0.242191 5.77322 0 5.07688 0C3.91131 0 3.07877 0.761906 3.07877 1.84676C3.07877 2.70534 3.60056 3.36129 4.38346 3.59768H0.222645V7.57406H0.966445V16.9453H0V18H18V16.9453H17.0336ZM11.7676 2.05868H11.7676L12.5345 3.29491H13.0593L13.8262 2.0032L13.8362 3.59768H11.7676V2.05868ZM5.84764 16.9102H2.02113V7.57406H5.84764V16.9102ZM15.9726 16.9142H6.90233V15.1523H15.9726V16.9142ZM6.90233 14.0977V11.8425H8.13002V14.0977H6.90233ZM15.9726 14.0977H14.8097V11.8425H15.9726V14.0977ZM15.9726 10.7878H12.0647V11.8425H13.755V14.0977H9.18471V11.8425H10.875V10.7878H6.90233V7.57406H15.9726V10.7878V10.7878ZM1.27733 6.51938V4.65237H16.7226V6.51938H1.27733Z" fill="#FF5A00"/>
</svg>
