<svg width="22" height="23" viewBox="0 0 22 23" fill="none" xmlns="http://www.w3.org/2000/svg">
<path d="M21.3397 15.386C21.8035 14.7944 22.026 14.1602 21.9976 13.5071C21.9692 12.7878 21.6474 12.2246 21.3823 11.8791C21.69 11.1124 21.8083 9.90554 20.7813 8.96846C20.0288 8.28222 18.751 7.9746 16.9809 8.05979C15.7362 8.11658 14.695 8.34848 14.6524 8.35795H14.6477C14.4111 8.40054 14.1602 8.4526 13.9047 8.50939C13.8857 8.2065 13.9378 7.454 14.4963 5.7597C15.1588 3.74357 15.121 2.20071 14.3732 1.16898C13.5876 0.0851886 12.3334 0 11.9643 0C11.6093 0 11.2828 0.146714 11.0509 0.416478C10.5255 1.027 10.587 2.15338 10.6533 2.67398C10.0286 4.34935 8.27749 8.45733 6.79616 9.59791C6.76776 9.61685 6.7441 9.64051 6.72043 9.66417C6.28502 10.1232 5.9916 10.6202 5.79282 11.0556C5.51359 10.9041 5.1965 10.819 4.85575 10.819H1.9688C0.880282 10.819 0 11.704 0 12.7878V20.4784C0 21.5669 0.885015 22.4472 1.9688 22.4472H4.85575C5.27696 22.4472 5.66977 22.3147 5.9916 22.0875L7.10378 22.22C7.27416 22.2437 10.3031 22.627 13.4125 22.5655C13.9757 22.6081 14.5057 22.6318 14.9979 22.6318C15.8451 22.6318 16.5834 22.5655 17.1986 22.433C18.6468 22.1254 19.636 21.5101 20.1376 20.6062C20.521 19.9152 20.521 19.229 20.4595 18.7935C21.4013 17.9417 21.5669 16.9999 21.5338 16.3373C21.5149 15.9539 21.4297 15.6274 21.3397 15.386ZM1.9688 21.1694C1.58545 21.1694 1.27783 20.857 1.27783 20.4784V12.783C1.27783 12.3997 1.59019 12.092 1.9688 12.092H4.85575C5.2391 12.092 5.54672 12.4044 5.54672 12.783V20.4737C5.54672 20.857 5.23437 21.1646 4.85575 21.1646H1.9688V21.1694ZM20.1282 14.8323C19.9294 15.0405 19.8915 15.3576 20.043 15.6037C20.043 15.6084 20.237 15.9397 20.2607 16.3941C20.2938 17.0141 19.9957 17.563 19.3709 18.0316C19.1485 18.202 19.0586 18.4954 19.1532 18.7604C19.1532 18.7652 19.3567 19.3899 19.0255 19.9815C18.7084 20.5494 18.0032 20.9564 16.9336 21.1836C16.077 21.3681 14.9127 21.4013 13.4835 21.2877C13.4645 21.2877 13.4409 21.2877 13.4172 21.2877C10.3741 21.3539 7.29782 20.9564 7.26469 20.9517H7.25996L6.78196 20.8949C6.81035 20.7624 6.82455 20.6204 6.82455 20.4784V12.783C6.82455 12.5795 6.79142 12.3807 6.73463 12.1962C6.81982 11.8791 7.05645 11.1739 7.61491 10.5729C9.73989 8.88801 11.8175 3.20404 11.9075 2.95794C11.9453 2.85855 11.9548 2.7497 11.9359 2.64085C11.8554 2.11078 11.8838 1.4624 11.9974 1.26836C12.2482 1.2731 12.925 1.34409 13.332 1.90728C13.8147 2.57459 13.7958 3.76723 13.2752 5.34795C12.4801 7.75689 12.4139 9.02526 13.0433 9.58372C13.3557 9.86295 13.7722 9.87714 14.075 9.76829C14.3637 9.70203 14.6382 9.64524 14.8985 9.60265C14.9175 9.59791 14.9411 9.59318 14.9601 9.58845C16.413 9.27136 19.016 9.07732 19.9199 9.90081C20.6866 10.6012 20.1424 11.5289 20.0808 11.6282C19.9057 11.8933 19.9578 12.2388 20.1944 12.4517C20.1992 12.4565 20.6961 12.925 20.7198 13.5545C20.7387 13.9757 20.5399 14.4063 20.1282 14.8323Z" fill="#3C9F53"/>
</svg>
