<svg width="174" height="45" viewBox="0 0 174 45" fill="none" xmlns="http://www.w3.org/2000/svg">
<rect y="0.687744" width="39.8893" height="39.8893" fill="#FF5A00"/>
<path d="M29.0119 15.7385C29.014 15.7407 29.0165 15.7425 29.0186 15.7447C29.0162 15.7413 28.9961 15.7201 29.0119 15.7385Z" fill="white"/>
<path d="M13.0534 19.7461C13.052 19.7448 13.0507 19.7435 13.0494 19.7421C12.5209 19.2137 11.8182 18.9226 11.0709 18.9226C10.3235 18.9226 9.62089 19.2136 9.09244 19.7421C8.03665 20.7979 8.00272 22.4945 8.99054 23.5916C8.71553 23.7309 8.46224 23.9157 8.24068 24.1436C7.17225 25.2426 7.18484 27.0186 8.2667 28.1003L9.67284 29.5147L8.70586 30.4805C8.32431 30.8616 8.32392 31.4799 8.70498 31.8614C8.89568 32.0524 9.14575 32.1479 9.39592 32.1479C9.6456 32.1479 9.89532 32.0527 10.086 31.8623L11.0498 30.8997L12.4465 32.3045C12.8957 32.7538 13.4903 33.0407 14.1207 33.1123C14.2295 33.1247 14.3379 33.1308 14.4457 33.1308C15.2039 33.1308 15.925 32.8284 16.4618 32.2762C16.6534 32.079 16.8097 31.8599 16.9318 31.6271C17.4699 32.1368 18.1621 32.3925 18.8547 32.3925C19.5712 32.3925 20.2877 32.1198 20.8332 31.5743C21.9233 30.4841 21.924 28.7107 20.8353 27.6196L13.0534 19.7461ZM15.0614 30.9149C14.873 31.1087 14.6104 31.2024 14.3412 31.1718C14.2045 31.1563 14.0046 31.1006 13.8296 30.9256L9.64975 26.7214C9.31668 26.3884 9.31282 25.8427 9.64115 25.5049C9.80402 25.3373 10.0225 25.2442 10.2563 25.2425C10.2584 25.2425 10.2605 25.2425 10.2626 25.2425C10.4668 25.2425 10.66 25.3128 10.8138 25.4406L15.1737 29.8517C15.3796 30.182 15.3433 30.6249 15.0614 30.9149ZM19.4521 30.1933C19.1232 30.5222 18.5883 30.5227 18.2588 30.1948L10.4734 22.3179C10.144 21.9885 10.144 21.4524 10.4734 21.123C10.633 20.9634 10.8452 20.8756 11.0708 20.8756C11.2957 20.8756 11.5073 20.9629 11.6668 21.1215L19.4481 28.9943C19.4495 28.9956 19.4508 28.997 19.4521 28.9983C19.7816 29.3278 19.7816 29.8639 19.4521 30.1933Z" fill="white"/>
<path d="M21.078 10.961C21.3038 10.961 21.5159 11.0489 21.6785 11.2115L27.6322 17.1201C28.1793 17.6671 28.9025 17.9413 29.6262 17.9412C30.3362 17.9411 31.0467 17.6771 31.5911 17.148C32.2218 16.5349 32.5265 15.6816 32.4272 14.807C32.3556 14.1767 32.0688 13.5821 31.6175 13.1309L30.2146 11.7361L31.1772 10.7723C31.5583 10.3907 31.5579 9.77237 31.1763 9.39131C30.7947 9.01024 30.1764 9.01054 29.7954 9.39214L28.8296 10.3591L27.4173 8.95488C26.3334 7.87112 24.5575 7.85857 23.4585 8.92695C23.2283 9.15071 23.0419 9.40693 22.9022 9.68522C22.3948 9.24752 21.755 9.008 21.0781 9.008C20.3308 9.008 19.6282 9.29903 19.0997 9.82749C18.5713 10.3559 18.2802 11.0586 18.2802 11.8059C18.2802 12.5533 18.5712 13.2559 19.0975 13.7822L22.2423 16.9469L17.5468 21.6547C17.166 22.0365 17.1668 22.6548 17.5486 23.0357C17.7392 23.2257 17.9887 23.3207 18.2382 23.3207C18.4886 23.3207 18.7389 23.2251 18.9297 23.0338L23.6189 18.3322L26.8329 21.5665C27.3614 22.0949 28.064 22.386 28.8113 22.386C29.5587 22.386 30.2613 22.095 30.7898 21.5665C31.1711 21.1851 31.1711 20.5669 30.7898 20.1855C30.4085 19.8042 29.7902 19.8042 29.4088 20.1856C29.2492 20.3452 29.0371 20.433 28.8114 20.433C28.5857 20.433 28.3736 20.3451 28.2161 20.1877L20.4806 12.4034C20.321 12.2438 20.2331 12.0316 20.2331 11.8059C20.2331 11.5802 20.321 11.3681 20.4806 11.2085C20.6402 11.0489 20.8524 10.961 21.078 10.961ZM24.8198 10.3274C24.9868 10.165 25.2047 10.0839 25.4228 10.0839C25.6457 10.0839 25.8689 10.1686 26.0383 10.3379L30.2385 14.5139C30.4155 14.6909 30.4711 14.8908 30.4866 15.0273C30.5172 15.2967 30.4236 15.5593 30.2298 15.7477C29.8938 16.0743 29.3523 16.0719 29.0167 15.7421C29.0175 15.743 29.0164 15.7422 29.0113 15.7371L24.8111 11.5612C24.6459 11.3959 24.5557 11.1762 24.5574 10.9425C24.559 10.7087 24.6522 10.4903 24.8198 10.3274Z" fill="white"/>
<path d="M52.1169 13.0934H49.4683V19H46.1438V2.86481H52.1391C54.0451 2.86481 55.5153 3.28961 56.5496 4.13922C57.5839 4.98883 58.1011 6.18937 58.1011 7.74083C58.1011 8.84163 57.861 9.76142 57.3808 10.5002C56.9079 11.2316 56.1876 11.8153 55.2198 12.2511L58.7106 18.8449V19H55.1422L52.1169 13.0934ZM49.4683 10.4005H52.1501C52.985 10.4005 53.6314 10.1899 54.0895 9.76881C54.5475 9.34031 54.7765 8.75297 54.7765 8.00679C54.7765 7.24584 54.5586 6.64742 54.1227 6.21153C53.6942 5.77564 53.033 5.5577 52.1391 5.5577H49.4683V10.4005ZM89.0749 5.5577H84.1324V19H80.8078V5.5577H75.9318V2.86481H89.0749V5.5577ZM100.689 12.0073H94.3055V16.3293H101.797V19H90.981V2.86481H101.775V5.5577H94.3055V9.40311H100.689V12.0073ZM50.4879 24.8648L54.6325 36.5673L58.7549 24.8648H63.1212V41H59.7855V36.5894L60.118 28.9762L55.7628 41H53.48L49.1359 28.9873L49.4683 36.5894V41H46.1438V24.8648H50.4879ZM71.2774 32.1345L74.6352 24.8648H78.2701L72.973 35.1488V41H69.593V35.1488L64.2959 24.8648H67.9418L71.2774 32.1345ZM95.1034 34.4063H88.7203V41H85.3957V24.8648H95.9013V27.5577H88.7203V31.7245H95.1034V34.4063ZM101.365 41H98.0401V24.8648H101.365V41ZM116.27 27.5577H111.327V41H108.003V27.5577H103.127V24.8648H116.27V27.5577ZM131.297 41H127.972L121.5 30.3836V41H118.176V24.8648H121.5L127.983 35.5034V24.8648H131.297V41ZM143.908 34.0073H137.525V38.3293H145.016V41H134.2V24.8648H144.994V27.5577H137.525V31.4031H143.908V34.0073ZM155.333 36.7667C155.333 36.1388 155.112 35.6585 154.668 35.3261C154.225 34.9862 153.427 34.6316 152.275 34.2622C151.122 33.8854 150.21 33.516 149.538 33.154C147.705 32.1641 146.789 30.8305 146.789 29.1535C146.789 28.2817 147.033 27.506 147.521 26.8263C148.016 26.1392 148.721 25.6036 149.637 25.2194C150.561 24.8353 151.595 24.6432 152.74 24.6432C153.893 24.6432 154.92 24.8537 155.821 25.2748C156.722 25.6886 157.42 26.2759 157.915 27.0369C158.418 27.7978 158.669 28.6622 158.669 29.63H155.344C155.344 28.8912 155.112 28.3187 154.646 27.9123C154.181 27.4986 153.527 27.2917 152.685 27.2917C151.872 27.2917 151.24 27.4654 150.79 27.8126C150.339 28.1524 150.114 28.6031 150.114 29.1646C150.114 29.6891 150.376 30.1287 150.901 30.4833C151.433 30.8379 152.212 31.1704 153.239 31.4807C155.13 32.0495 156.508 32.7551 157.372 33.5973C158.237 34.4395 158.669 35.4886 158.669 36.7446C158.669 38.1409 158.141 39.238 157.084 40.0359C156.028 40.8264 154.606 41.2216 152.818 41.2216C151.577 41.2216 150.446 40.9963 149.427 40.5456C148.407 40.0876 147.628 39.4633 147.088 38.6728C146.557 37.8823 146.291 36.9662 146.291 35.9245H149.626C149.626 37.705 150.69 38.5952 152.818 38.5952C153.608 38.5952 154.225 38.4364 154.668 38.1187C155.112 37.7936 155.333 37.343 155.333 36.7667ZM169.296 36.7667C169.296 36.1388 169.075 35.6585 168.632 35.3261C168.188 34.9862 167.39 34.6316 166.238 34.2622C165.085 33.8854 164.173 33.516 163.501 33.154C161.668 32.1641 160.752 30.8305 160.752 29.1535C160.752 28.2817 160.996 27.506 161.484 26.8263C161.979 26.1392 162.684 25.6036 163.6 25.2194C164.524 24.8353 165.558 24.6432 166.703 24.6432C167.856 24.6432 168.883 24.8537 169.784 25.2748C170.685 25.6886 171.384 26.2759 171.879 27.0369C172.381 27.7978 172.632 28.6622 172.632 29.63H169.308C169.308 28.8912 169.075 28.3187 168.609 27.9123C168.144 27.4986 167.49 27.2917 166.648 27.2917C165.835 27.2917 165.204 27.4654 164.753 27.8126C164.302 28.1524 164.077 28.6031 164.077 29.1646C164.077 29.6891 164.339 30.1287 164.864 30.4833C165.396 30.8379 166.175 31.1704 167.202 31.4807C169.093 32.0495 170.471 32.7551 171.336 33.5973C172.2 34.4395 172.632 35.4886 172.632 36.7446C172.632 38.1409 172.104 39.238 171.047 40.0359C169.991 40.8264 168.569 41.2216 166.781 41.2216C165.54 41.2216 164.409 40.9963 163.39 40.5456C162.37 40.0876 161.591 39.4633 161.052 38.6728C160.52 37.8823 160.254 36.9662 160.254 35.9245H163.589C163.589 37.705 164.653 38.5952 166.781 38.5952C167.571 38.5952 168.188 38.4364 168.632 38.1187C169.075 37.7936 169.296 37.343 169.296 36.7667Z" fill="#262E3A"/>
<g clip-path="url(#clip0)">
<path d="M76.3399 8.44044L70.3424 8.04613L68.0837 2.3717L65.825 8.04613L59.834 8.44044L64.429 12.3421L62.9212 18.2607L68.0837 14.9975L73.2462 18.2607L71.7383 12.3421L76.3399 8.44044Z" fill="#FF5A00"/>
</g>
<defs>
<clipPath id="clip0">
<rect width="16.5059" height="16.5059" fill="white" transform="translate(59.834 2.06323)"/>
</clipPath>
</defs>
</svg>
