<svg width="12" height="12" viewBox="0 0 12 12" fill="none" xmlns="http://www.w3.org/2000/svg">
<g clip-path="url(#clip0)">
<path d="M7.95459 6.0615L12.0001 8.619V3.396L7.95459 6.0615Z" fill="white"/>
<path d="M0 3.396V8.619L4.0455 6.0615L0 3.396Z" fill="white"/>
<path d="M11.25 1.875H0.749961C0.375711 1.875 0.0787109 2.154 0.0224609 2.51325L5.99996 6.4515L11.9775 2.51325C11.9212 2.154 11.6242 1.875 11.25 1.875Z" fill="white"/>
<path d="M7.26718 6.51454L6.20593 7.21354C6.14293 7.25479 6.07168 7.27504 5.99968 7.27504C5.92768 7.27504 5.85643 7.25479 5.79343 7.21354L4.73218 6.51379L0.0236816 9.49204C0.0814316 9.84829 0.376932 10.125 0.749682 10.125H11.2497C11.6224 10.125 11.9179 9.84829 11.9757 9.49204L7.26718 6.51454Z" fill="white"/>
</g>
<defs>
<clipPath id="clip0">
<rect width="12" height="12" fill="white"/>
</clipPath>
</defs>
</svg>
