<svg width="40" height="40" viewBox="0 0 40 40" fill="none" xmlns="http://www.w3.org/2000/svg">
<path d="M36.4844 6.29761H3.51562C1.57711 6.29761 0 7.87472 0 9.81323V30.1868C0 32.1253 1.57711 33.7024 3.51562 33.7024H36.4844C38.4229 33.7024 40 32.1253 40 30.1868V9.81323C40 7.87472 38.4229 6.29761 36.4844 6.29761ZM36.0255 8.64136L35.5563 9.03206L21.3948 20.8243C20.5866 21.4973 19.4133 21.4973 18.6052 20.8243L4.44367 9.03206L3.97445 8.64136H36.0255ZM2.34375 10.3334L13.8822 19.9414L2.34375 27.6206V10.3334ZM36.4844 31.3587H3.51562C2.94937 31.3587 2.47578 30.955 2.36727 30.4203L15.7614 21.5062L17.1055 22.6254C17.9441 23.3237 18.9721 23.6728 20.0001 23.6728C21.028 23.6728 22.056 23.3237 22.8947 22.6254L24.2388 21.5062L37.6328 30.4203C37.5242 30.955 37.0506 31.3587 36.4844 31.3587ZM37.6562 27.6206L26.1178 19.9415L37.6562 10.3334V27.6206Z" fill="#FF5A00"/>
</svg>
