<svg width="22" height="36" viewBox="0 0 22 36" fill="none" xmlns="http://www.w3.org/2000/svg">
<path d="M19.001 27H3.00098C2.73576 27 2.48141 26.8946 2.29387 26.7071C2.10633 26.5196 2.00098 26.2652 2.00098 26V17C2.00098 14.6131 2.94919 12.3239 4.63702 10.636C6.32484 8.94821 8.61403 8 11.001 8C13.3879 8 15.6771 8.94821 17.3649 10.636C19.0528 12.3239 20.001 14.6131 20.001 17V26C20.001 26.2652 19.8956 26.5196 19.7081 26.7071C19.5205 26.8946 19.2662 27 19.001 27ZM4.00098 25H18.001V17C18.001 15.1435 17.2635 13.363 15.9507 12.0503C14.638 10.7375 12.8575 10 11.001 10C9.14446 10 7.36399 10.7375 6.05123 12.0503C4.73848 13.363 4.00098 15.1435 4.00098 17V25Z" fill="#133966"/>
<path d="M19.001 31H3.00098C2.20533 31 1.44226 30.6839 0.879654 30.1213C0.317045 29.5587 0.000976562 28.7956 0.000976562 28C0.000976562 27.2044 0.317045 26.4413 0.879654 25.8787C1.44226 25.3161 2.20533 25 3.00098 25H19.001C19.7966 25 20.5597 25.3161 21.1223 25.8787C21.6849 26.4413 22.001 27.2044 22.001 28C22.001 28.7956 21.6849 29.5587 21.1223 30.1213C20.5597 30.6839 19.7966 31 19.001 31ZM3.00098 27C2.73576 27 2.48141 27.1054 2.29387 27.2929C2.10633 27.4804 2.00098 27.7348 2.00098 28C2.00098 28.2652 2.10633 28.5196 2.29387 28.7071C2.48141 28.8946 2.73576 29 3.00098 29H19.001C19.2662 29 19.5205 28.8946 19.7081 28.7071C19.8956 28.5196 20.001 28.2652 20.001 28C20.001 27.7348 19.8956 27.4804 19.7081 27.2929C19.5205 27.1054 19.2662 27 19.001 27H3.00098Z" fill="#133966"/>
<path d="M11.001 10C10.7358 10 10.4814 9.89464 10.2939 9.70711C10.1063 9.51957 10.001 9.26522 10.001 9V6.5C10.001 5.83696 10.2644 5.20107 10.7332 4.73223C11.2021 4.26339 11.8379 4 12.501 4C13.164 4 13.7999 4.26339 14.2687 4.73223C14.7376 5.20107 15.001 5.83696 15.001 6.5C15.001 6.76522 14.8956 7.01957 14.7081 7.20711C14.5205 7.39464 14.2662 7.5 14.001 7.5C13.7358 7.5 13.4814 7.39464 13.2939 7.20711C13.1063 7.01957 13.001 6.76522 13.001 6.5C13.001 6.36739 12.9483 6.24021 12.8545 6.14645C12.7608 6.05268 12.6336 6 12.501 6C12.3684 6 12.2412 6.05268 12.1474 6.14645C12.0537 6.24021 12.001 6.36739 12.001 6.5V9C12.001 9.26522 11.8956 9.51957 11.7081 9.70711C11.5205 9.89464 11.2662 10 11.001 10Z" fill="#133966"/>
<path d="M11.001 36C10.2287 36 9.47291 35.7763 8.82492 35.3561C8.17693 34.936 7.66443 34.3372 7.34932 33.6321C7.0342 32.927 6.92996 32.1457 7.04915 31.3827C7.16833 30.6196 7.50587 29.9074 8.02099 29.332C8.11487 29.2274 8.22974 29.1438 8.35811 29.0866C8.48647 29.0294 8.62545 28.9999 8.76599 29H13.237C13.3775 28.9999 13.5165 29.0294 13.6449 29.0866C13.7732 29.1438 13.8881 29.2274 13.982 29.332C14.4972 29.9075 14.8347 30.6198 14.9539 31.3829C15.073 32.1461 14.9687 32.9274 14.6535 33.6325C14.3382 34.3377 13.8256 34.9365 13.1774 35.3566C12.5293 35.7767 11.7734 36.0001 11.001 36ZM9.26899 31C9.09344 31.304 9.001 31.6489 9.00099 32C9.00098 32.3511 9.09339 32.696 9.26892 33C9.44445 33.3041 9.69693 33.5566 10.001 33.7321C10.305 33.9077 10.6499 34.0001 11.001 34.0001C11.3521 34.0001 11.697 33.9077 12.001 33.7321C12.305 33.5566 12.5575 33.3041 12.7331 33C12.9086 32.696 13.001 32.3511 13.001 32C13.001 31.6489 12.9085 31.304 12.733 31H9.26899Z" fill="#133966"/>
<path opacity="0.16" d="M11.501 13C15.0908 13 18.001 10.0899 18.001 6.5C18.001 2.91015 15.0908 0 11.501 0C7.91113 0 5.00098 2.91015 5.00098 6.5C5.00098 10.0899 7.91113 13 11.501 13Z" fill="#F52F44"/>
<path d="M11.501 10C13.434 10 15.001 8.433 15.001 6.5C15.001 4.567 13.434 3 11.501 3C9.56798 3 8.00098 4.567 8.00098 6.5C8.00098 8.433 9.56798 10 11.501 10Z" fill="#F52F44"/>
</svg>
