<svg width="23" height="23" viewBox="0 0 23 23" fill="none" xmlns="http://www.w3.org/2000/svg">
<path d="M22.7511 7.45091C22.2713 6.22935 21.3916 4.46682 19.9249 3.00709C18.4634 1.5524 16.7196 0.697836 15.514 0.237045C14.1905 -0.268801 12.6865 0.0500424 11.6826 1.04929L8.15463 4.5607C7.10884 5.60154 6.80743 7.20313 7.40455 8.54602C7.58971 8.96252 7.79109 9.3699 8.00625 9.76349L0.263142 17.5066C0.0946468 17.6751 0 17.9036 0 18.1419V22.0948C0 22.591 0.402215 22.9932 0.898403 22.9932H4.85138C5.34757 22.9932 5.74978 22.591 5.74978 22.0948V20.4777L7.36691 20.4777C7.86309 20.4777 8.26531 20.0754 8.26531 19.5793V17.9622H9.88243C10.3786 17.9622 10.7808 17.56 10.7808 17.0638C10.7808 16.5676 10.3786 16.1654 9.88243 16.1654H7.36691C6.87072 16.1654 6.4685 16.5676 6.4685 17.0638V18.6809L4.85138 18.6809C4.35519 18.6809 3.95297 19.0831 3.95297 19.5793V21.1964H1.79681V18.514L9.76362 10.5472C10.0563 10.2545 10.1112 9.79978 9.89649 9.4459C9.58515 8.93273 9.29915 8.38435 9.04647 7.81597C8.75004 7.14931 8.90106 6.35292 9.42227 5.83414L12.9502 2.32278C13.4539 1.82151 14.2084 1.66164 14.8727 1.91544C15.9158 2.31415 17.4192 3.04806 18.6575 4.28058C19.9033 5.52055 20.6618 7.04618 21.0786 8.10764C21.3388 8.77012 21.1807 9.52276 20.6759 10.0251L17.1054 13.579C16.5855 14.0964 15.8094 14.2477 15.1282 13.9644C14.5664 13.7307 14.0223 13.4531 13.5111 13.1393C13.0883 12.8798 12.535 13.0122 12.2755 13.4351C12.0159 13.858 12.1483 14.4112 12.5712 14.6707C13.162 15.0333 13.7901 15.3538 14.4381 15.6234C15.7921 16.1866 17.3366 15.8839 18.3729 14.8525L21.9435 11.2987C22.9562 10.2908 23.2732 8.78041 22.7511 7.45091Z" fill="#FF5A00"/>
</svg>
