<svg width="44" height="44" viewBox="0 0 44 44" fill="none" xmlns="http://www.w3.org/2000/svg">
<g clip-path="url(#clip0)">
<path d="M37.5564 6.44363C33.4012 2.28842 27.8763 0 22 0C16.1237 0 10.5988 2.28842 6.44363 6.44363C2.28842 10.5988 0 16.1237 0 22C0 27.8763 2.28842 33.4012 6.44363 37.5564C10.5988 41.7116 16.1237 44 22 44C27.8763 44 33.4012 41.7116 37.5564 37.5564C41.7116 33.4012 44 27.8763 44 22C44 16.1237 41.7116 10.5988 37.5564 6.44363ZM22 40.5625C11.7647 40.5625 3.4375 32.2353 3.4375 22C3.4375 11.7647 11.7647 3.4375 22 3.4375C32.2353 3.4375 40.5625 11.7647 40.5625 22C40.5625 32.2353 32.2353 40.5625 22 40.5625ZM23.7188 20.2796H31.4531V23.7171H23.7188V31.4514H20.2812V23.7171H12.5469V20.2796H20.2812V12.5452H23.7188V20.2796Z" fill="#FF5A00"/>
</g>
<defs>
<clipPath id="clip0">
<rect width="44" height="44" fill="white"/>
</clipPath>
</defs>
</svg>
