<svg width="44" height="44" viewBox="0 0 44 44" fill="none" xmlns="http://www.w3.org/2000/svg">
<g clip-path="url(#clip0)">
<path d="M7.12224 26.737C7.41589 26.9336 7.74795 27.0275 8.07649 27.0275C8.63079 27.0275 9.17503 26.7597 9.50649 26.2645C12.2837 22.1144 16.9263 19.6367 21.9254 19.6367C26.9097 19.6367 31.5446 22.103 34.3239 26.2341C34.8538 27.0218 35.9218 27.2307 36.7093 26.7008C37.4969 26.1709 37.7058 25.1029 37.176 24.3153C34.9554 21.0148 31.7718 18.5794 28.1337 17.2766C30.3155 15.4944 31.7109 12.7841 31.7109 9.75391C31.7109 4.39923 27.3547 0.0429688 22 0.0429688C16.6453 0.0429688 12.2891 4.39923 12.2891 9.75391C12.2891 12.7624 13.6642 15.4556 15.819 17.2383C12.1241 18.5363 8.89255 21.0012 6.64967 24.3527C6.12176 25.1416 6.33334 26.2091 7.12224 26.737ZM22 3.48047C25.4592 3.48047 28.2734 6.29475 28.2734 9.75391C28.2734 13.2131 25.4592 16.0273 22 16.0273C18.5408 16.0273 15.7266 13.2131 15.7266 9.75391C15.7266 6.29475 18.5408 3.48047 22 3.48047ZM28.8542 30.476L26.2919 32.3244C25.9107 32.5994 25.7511 33.087 25.8967 33.532L26.9286 36.5228C26.9722 36.656 26.9889 36.7861 26.9833 36.9102C26.9468 37.7134 25.9401 38.2629 25.2017 37.7303L22.6395 35.8813C22.4489 35.7438 22.2245 35.6751 22.0001 35.6751C21.7757 35.6751 21.5513 35.7438 21.3607 35.8813L18.7985 37.7303C18.0601 38.2629 17.0485 37.7134 17.0166 36.9102C17.0117 36.7861 17.0289 36.6559 17.0724 36.5228L18.1033 33.532C18.249 33.087 18.0894 32.5994 17.7082 32.3244L15.1459 30.476C14.2934 29.861 14.7315 28.4023 15.7853 28.4023H18.9524C19.4237 28.4023 19.8413 28.2209 19.9869 27.7759L20.9656 24.7658C21.1284 24.2683 21.5642 24.0195 22.0001 24.0195C22.436 24.0195 22.8717 24.2683 23.0346 24.7658L24.0133 27.7759C24.1589 28.2209 24.5765 28.4023 25.0478 28.4023H28.2149C29.2686 28.4023 29.7067 29.861 28.8542 30.476ZM43.5495 36.4916L40.9872 38.3401C40.606 38.6151 40.4464 39.1026 40.5921 39.5476L41.6239 42.5384C41.6675 42.6716 41.6842 42.8017 41.6787 42.9258C41.6421 43.729 40.6354 44.2785 39.897 43.7459L37.3348 41.8969C37.1442 41.7594 36.9198 41.6907 36.6954 41.6907C36.471 41.6907 36.2466 41.7594 36.056 41.8969L33.4938 43.7459C32.7554 44.2785 31.7439 43.729 31.7119 42.9258C31.707 42.8017 31.7242 42.6715 31.7677 42.5384L32.7986 39.5476C32.9443 39.1026 32.7847 38.6151 32.4035 38.3401L29.8412 36.4916C28.9887 35.8767 29.4268 34.418 30.4806 34.418H33.6477C34.119 34.418 34.5366 34.2366 34.6822 33.7916L35.6609 30.7814C35.8237 30.2839 36.2595 30.0352 36.6954 30.0352C37.1313 30.0352 37.5671 30.2839 37.7299 30.7814L38.7086 33.7916C38.8542 34.2366 39.2718 34.418 39.7431 34.418H42.9102C43.9639 34.418 44.402 35.8767 43.5495 36.4916ZM14.1589 36.4916L11.5966 38.3401C11.2154 38.6151 11.0558 39.1026 11.2014 39.5476L12.2333 42.5384C12.2769 42.6716 12.2936 42.8017 12.288 42.9258C12.2515 43.729 11.2448 44.2785 10.5064 43.7459L7.94406 41.8969C7.75345 41.7594 7.52907 41.6907 7.30469 41.6907C7.0803 41.6907 6.85592 41.7594 6.66531 41.8969L4.10309 43.7459C3.36471 44.2785 2.35314 43.729 2.32117 42.9258C2.31627 42.8017 2.33346 42.6715 2.37703 42.5384L3.40794 39.5476C3.5536 39.1026 3.39402 38.6151 3.0128 38.3401L0.450484 36.4916C-0.402016 35.8767 0.0360937 34.418 1.08986 34.418H4.257C4.72828 34.418 5.14594 34.2366 5.29152 33.7916L6.27017 30.7814C6.43302 30.2839 6.86881 30.0352 7.30469 30.0352C7.74056 30.0352 8.17635 30.2839 8.3392 30.7814L9.31786 33.7916C9.46352 34.2366 9.88109 34.418 10.3524 34.418H13.5195C14.5733 34.418 15.0114 35.8767 14.1589 36.4916Z" fill="#FF5A00"/>
</g>
<defs>
<clipPath id="clip0">
<rect width="44" height="44" fill="white"/>
</clipPath>
</defs>
</svg>
