<svg width="25" height="13" viewBox="0 0 25 13" fill="none" xmlns="http://www.w3.org/2000/svg">
<path d="M0.977034 5.52343H21.6586L18.2326 2.11406C17.8503 1.73359 17.8489 1.11528 18.2293 0.733004C18.6098 0.35068 19.2282 0.349265 19.6104 0.729684L24.7132 5.8078C24.7135 5.8081 24.7138 5.80844 24.714 5.80873C25.0953 6.1892 25.0966 6.80951 24.7141 7.19125C24.7138 7.19154 24.7136 7.19188 24.7133 7.19218L19.6105 12.2703C19.2283 12.6507 18.6099 12.6493 18.2294 12.267C17.849 11.8847 17.8504 11.2664 18.2327 10.8859L21.6586 7.47655H0.977034C0.437677 7.47655 0.000471115 7.03935 0.000471115 6.49999C0.000471115 5.96064 0.437677 5.52343 0.977034 5.52343Z" fill="#2B49CE"/>
</svg>
