<svg width="26" height="26" viewBox="0 0 26 26" fill="none" xmlns="http://www.w3.org/2000/svg">
<circle cx="12.9721" cy="12.8367" r="12.8367" fill="white"/>
<g clip-path="url(#clip0)">
<path d="M18.1068 9.65256C17.7249 9.82008 17.318 9.93112 16.8937 9.98504C17.3301 9.72445 17.6633 9.31496 17.8199 8.82139C17.4129 9.064 16.9637 9.23537 16.4849 9.33101C16.0985 8.91959 15.5478 8.66478 14.947 8.66478C13.7814 8.66478 12.8431 9.61085 12.8431 10.7706C12.8431 10.9375 12.8572 11.098 12.8919 11.2507C11.1416 11.1654 9.59282 10.3265 8.55241 9.0486C8.37077 9.36374 8.26422 9.72445 8.26422 10.1128C8.26422 10.8419 8.6397 11.4882 9.19938 11.8624C8.86113 11.856 8.5293 11.7578 8.24818 11.6031C8.24818 11.6095 8.24818 11.6179 8.24818 11.6262C8.24818 12.6493 8.97794 13.4991 9.93492 13.6948C9.76355 13.7417 9.57678 13.7642 9.38294 13.7642C9.24816 13.7642 9.11209 13.7565 8.98436 13.7282C9.25714 14.562 10.0312 15.1749 10.9516 15.1948C10.2353 15.7551 9.32582 16.0927 8.34124 16.0927C8.16859 16.0927 8.003 16.085 7.8374 16.0639C8.76999 16.6653 9.87523 17.0086 11.0671 17.0086C14.9412 17.0086 17.0593 13.7995 17.0593 11.0177C17.0593 10.9247 17.0561 10.8348 17.0516 10.7456C17.4694 10.4491 17.8205 10.0787 18.1068 9.65256Z" fill="#F52F44"/>
</g>
<defs>
<clipPath id="clip0">
<rect width="10.2694" height="10.2694" fill="white" transform="translate(7.8374 7.70203)"/>
</clipPath>
</defs>
</svg>
